<svg width="126" height="31" viewBox="0 0 126 31" fill="none" xmlns="http://www.w3.org/2000/svg">
<g clip-path="url(#clip0_195_429)">
<path fill-rule="evenodd" clip-rule="evenodd" d="M15.1238 0.580847C14.8366 0.569687 14.5565 0.671852 14.3435 0.865463C14.1304 1.05907 14.0013 1.32874 13.9839 1.6167H16.2657C16.2478 1.32857 16.1183 1.0589 15.9049 0.865337C15.6915 0.671773 15.4112 0.569669 15.1238 0.580847Z" fill="#EBEBEB"/>
<path d="M46.552 24.783L52.6124 11.5318V11.4137H54.9713V27.9196H52.6124V13.8107L46.6002 27.2051H45.1671L38.8232 13.8455V27.9215H37.8839V11.406H40.3277L46.552 24.783Z" fill="white"/>
<path d="M61.4232 20.839L55.386 11.406H58.1577L63.1842 19.1158L68.2107 11.406H69.3391L63.7725 19.989V27.9118H61.4232V20.839Z" fill="white"/>
<path d="M76.9598 18.7808C80.3892 20.2659 82.1271 21.3269 82.1271 23.8517C82.1271 26.5158 80.1982 28.0957 76.1612 28.0957C71.8619 28.0957 69.584 26.2564 69.4663 22.9784H71.8156C71.8156 25.3367 73.2719 27.238 76.2307 27.238C78.1595 27.238 79.7778 26.4364 79.7778 24.4325C79.7778 22.6396 78.5105 22.0743 74.8458 20.3666C71.8754 19.0229 69.9504 18.1496 69.9504 15.4893C69.9504 12.8291 71.752 11.2414 75.681 11.2414C79.6524 11.2414 81.7432 12.891 81.7895 15.8882H79.4171C79.4171 13.6016 78.1711 12.1398 75.7041 12.0914C73.5438 12.0449 72.2747 13.1059 72.2747 14.8272C72.2747 16.7827 73.9199 17.4894 76.9598 18.7808Z" fill="white"/>
<path d="M83.8341 11.406H95.461V12.3256H86.1815V19.0229H94.757V19.9425H86.1815V26.9921H95.6963V27.9118H83.8341V11.406Z" fill="white"/>
<path d="M96.8479 11.406H102.509C106.126 11.406 108.546 13.1272 108.546 16.0044C108.546 18.3626 106.972 19.9193 104.459 20.413L109.439 27.9118H106.901L102.034 20.6028H99.1972V27.9118H96.8479V11.406ZM99.1972 12.3256V19.6831H101.946C104.482 19.6831 106.102 18.4091 106.102 16.0276C106.102 13.6461 104.482 12.3256 101.921 12.3256H99.1972Z" fill="white"/>
<path d="M118.622 25.2244L124.794 11.406H125.992L118.757 27.9118H117.465L109.792 11.406H112.45L118.622 25.2244Z" fill="white"/>
<path fill-rule="evenodd" clip-rule="evenodd" d="M15.1239 0C15.6361 0.00659245 16.1252 0.214815 16.4859 0.579838C16.8467 0.944861 17.0502 1.43749 17.0527 1.95166V2.05815H13.1951V1.95166C13.1976 1.43749 13.4011 0.944861 13.7618 0.579838C14.1226 0.214815 14.6117 0.00659245 15.1239 0Z" fill="black"/>
<path fill-rule="evenodd" clip-rule="evenodd" d="M15.1239 1.33015C18.5545 1.33002 21.8482 2.68093 24.2972 5.09253C26.7462 7.50412 28.1549 10.7839 28.2205 14.227L28.234 14.9356H2.01562L2.02913 14.227C2.09479 10.7842 3.50323 7.50475 5.95178 5.0932C8.40033 2.68166 11.6936 1.33053 15.1239 1.33015Z" fill="black"/>
<path fill-rule="evenodd" clip-rule="evenodd" d="M15.1239 2.02523C11.8748 2.02515 8.75532 3.30475 6.43614 5.58896C4.11696 7.87317 2.7832 10.9796 2.72156 14.2405H27.5281C27.4664 10.9793 26.1324 7.87255 23.8128 5.58828C21.4932 3.30402 18.3733 2.02464 15.1239 2.02523Z" fill="black"/>
<path fill-rule="evenodd" clip-rule="evenodd" d="M15.1238 10.1959C16.7807 10.1959 18.4375 10.2539 20.0867 10.3895C21.4694 10.4931 22.8454 10.6728 24.2086 10.9277C25.2501 11.1025 26.2677 11.3988 27.2407 11.8106C28.2514 12.2734 29.1849 13.042 29.1849 14.2579C29.1849 15.4739 28.2514 16.2425 27.2407 16.7053C26.2673 17.1156 25.2498 17.4112 24.2086 17.5862C22.8454 17.8411 21.4694 18.0208 20.0867 18.1245C18.4375 18.2581 16.7807 18.3181 15.1238 18.3181C13.467 18.3181 11.812 18.2581 10.1629 18.1245C8.78018 18.0208 7.40415 17.8411 6.04102 17.5862C4.99966 17.4108 3.98213 17.1145 3.00892 16.7033C1.99629 16.2406 1.06274 15.4719 1.06274 14.256C1.06274 13.0401 1.99629 12.2714 3.00892 11.8106C3.9819 11.3992 4.99953 11.1035 6.04102 10.9297C7.40415 10.6748 8.78018 10.4951 10.1629 10.3914C11.812 10.2617 13.4689 10.1959 15.1238 10.1959Z" fill="white"/>
<path fill-rule="evenodd" clip-rule="evenodd" d="M15.1239 10.8909C16.7614 10.8909 18.4028 10.949 20.0308 11.0846C21.3894 11.1871 22.7415 11.3629 24.0813 11.6112C25.0682 11.7787 26.033 12.058 26.9572 12.4438C27.7017 12.7826 28.5002 13.3421 28.5002 14.2579C28.5002 15.1738 27.7055 15.7333 26.9572 16.0721C26.0332 16.4581 25.0683 16.7368 24.0813 16.9028C22.7417 17.1527 21.3895 17.3291 20.0308 17.4313C18.4009 17.5649 16.7614 17.6249 15.1239 17.6249C13.4863 17.6249 11.8449 17.5669 10.2189 17.4313C8.86014 17.3291 7.50796 17.1527 6.16836 16.9028C5.18256 16.7359 4.21898 16.4566 3.29635 16.0702C2.55183 15.7314 1.7533 15.1699 1.7533 14.256C1.7533 13.3421 2.5499 12.7806 3.29635 12.4418C4.22086 12.0587 5.18563 11.782 6.17222 11.617C7.51201 11.3687 8.86413 11.1929 10.2227 11.0904C11.8487 10.949 13.4882 10.8909 15.1239 10.8909Z" fill="black"/>
<path fill-rule="evenodd" clip-rule="evenodd" d="M15.1239 11.859C21.975 11.859 27.5281 12.9317 27.5281 14.256C27.5281 15.5803 21.975 16.651 15.1239 16.651C8.2727 16.651 2.72156 15.5765 2.72156 14.2541C2.72156 12.9317 8.27462 11.859 15.1239 11.859Z" fill="white"/>
<path fill-rule="evenodd" clip-rule="evenodd" d="M15.1239 31C20.6789 31 25.2097 29.7279 25.2097 28.1693C25.2097 26.6107 20.6789 25.3386 15.1239 25.3386C9.56888 25.3386 5.03809 26.6107 5.03809 28.1693C5.03809 29.7279 9.56888 31 15.1239 31Z" fill="black"/>
<path d="M15.1239 29.9545C23.4765 29.9545 30.2477 28.1748 30.2477 25.9795C30.2477 23.7842 23.4765 22.0046 15.1239 22.0046C6.77118 22.0046 0 23.7842 0 25.9795C0 28.1748 6.77118 29.9545 15.1239 29.9545Z" fill="black"/>
<path fill-rule="evenodd" clip-rule="evenodd" d="M15.1239 29.2594C23.0745 29.2594 29.5573 27.786 29.5573 25.9795C29.5573 24.1731 23.0745 22.688 15.1239 22.688C7.17333 22.688 0.692505 24.1634 0.692505 25.9795C0.692505 27.7956 7.17526 29.2594 15.1239 29.2594Z" fill="white"/>
<path style="mix-blend-mode:multiply" opacity="0.6" d="M24.9744 27.7259C24.9744 27.8731 20.5593 27.9912 15.1143 27.9912C9.66921 27.9912 5.25415 27.8808 5.25415 27.7259C5.25415 27.571 9.66921 27.4607 15.1143 27.4607C20.5593 27.4607 24.9744 27.5807 24.9744 27.7259Z" fill="url(#paint0_radial_195_429)"/>
<path style="mix-blend-mode:multiply" opacity="0.6" d="M19.7182 27.7937C21.7518 27.7937 23.4004 27.7157 23.4004 27.6194C23.4004 27.5232 21.7518 27.4452 19.7182 27.4452C17.6847 27.4452 16.0361 27.5232 16.0361 27.6194C16.0361 27.7157 17.6847 27.7937 19.7182 27.7937Z" fill="url(#paint1_radial_195_429)"/>
<path style="mix-blend-mode:multiply" opacity="0.6" d="M10.5217 27.7937C12.5553 27.7937 14.2038 27.7157 14.2038 27.6194C14.2038 27.5232 12.5553 27.4452 10.5217 27.4452C8.48814 27.4452 6.8396 27.5232 6.8396 27.6194C6.8396 27.7157 8.48814 27.7937 10.5217 27.7937Z" fill="url(#paint2_radial_195_429)"/>
<path d="M17.6544 27.3174L15.12 23.9446L12.6164 27.2845L8.49255 23.1469L11.8217 20.6338L15.12 17.3229L17.6236 13.9811L21.7455 18.1206L18.4182 20.6338L21.7782 23.1779L17.6544 27.3174Z" fill="#002366"/>
<path d="M12.4756 22.7461H8.69708C8.39987 22.7461 8.15894 22.988 8.15894 23.2863V27.0793C8.15894 27.3776 8.39987 27.6194 8.69708 27.6194H12.4756C12.7728 27.6194 13.0138 27.3776 13.0138 27.0793V23.2863C13.0138 22.988 12.7728 22.7461 12.4756 22.7461Z" fill="#2DA0ED"/>
<path d="M11.8025 23.962H9.37024V26.4035H11.8025V23.962Z" fill="white"/>
<path d="M11.4167 25.1838C11.417 25.0185 11.3686 24.8569 11.2774 24.7194C11.1862 24.5819 11.0564 24.4746 10.9044 24.4112C10.7524 24.3478 10.5851 24.3311 10.4236 24.3633C10.2622 24.3954 10.1139 24.4749 9.99752 24.5917C9.88114 24.7086 9.80192 24.8574 9.76991 25.0195C9.73789 25.1815 9.75452 25.3495 9.81768 25.5021C9.88084 25.6546 9.98769 25.7849 10.1247 25.8765C10.2617 25.968 10.4227 26.0167 10.5873 26.0163C10.8071 26.0158 11.0178 25.9279 11.1732 25.7719C11.3286 25.6159 11.4162 25.4044 11.4167 25.1838Z" fill="#2DA0ED"/>
<path d="M17.2263 14.1844V17.9773C17.2263 18.2757 17.4673 18.5175 17.7645 18.5175H21.543C21.8402 18.5175 22.0812 18.2757 22.0812 17.9773V14.1844C22.0812 13.886 21.8402 13.6442 21.543 13.6442H17.7645C17.4673 13.6442 17.2263 13.886 17.2263 14.1844Z" fill="#2DA0ED"/>
<path d="M18.4376 14.8582V17.2997H20.8699V14.8582H18.4376Z" fill="white"/>
<path d="M19.6547 15.2473C19.4902 15.2469 19.3292 15.2956 19.1923 15.387C19.0553 15.4785 18.9485 15.6087 18.8852 15.7611C18.822 15.9136 18.8053 16.0814 18.8372 16.2434C18.869 16.4054 18.948 16.5543 19.0642 16.6712C19.1804 16.7881 19.3285 16.8678 19.4898 16.9001C19.6512 16.9325 19.8184 16.9161 19.9704 16.853C20.1224 16.7899 20.2524 16.6829 20.3438 16.5456C20.4352 16.4084 20.4841 16.2469 20.4841 16.0818C20.4841 15.8608 20.3967 15.6489 20.2412 15.4924C20.0858 15.336 19.8748 15.2478 19.6547 15.2473Z" fill="#2DA0ED"/>
<path d="M17.2263 23.2882V27.0812C17.2263 27.3795 17.4673 27.6214 17.7645 27.6214H21.543C21.8402 27.6214 22.0812 27.3795 22.0812 27.0812V23.2882C22.0812 22.9899 21.8402 22.748 21.543 22.748H17.7645C17.4673 22.748 17.2263 22.9899 17.2263 23.2882Z" fill="#2DA0ED"/>
<path d="M18.4376 23.962V26.4035H20.8699V23.962H18.4376Z" fill="white"/>
<path d="M19.6547 24.3493C19.4902 24.3489 19.3292 24.3975 19.1923 24.489C19.0553 24.5804 18.9485 24.7106 18.8852 24.8631C18.822 25.0155 18.8053 25.1834 18.8372 25.3454C18.869 25.5074 18.948 25.6562 19.0642 25.7731C19.1804 25.89 19.3285 25.9697 19.4898 26.0021C19.6512 26.0344 19.8184 26.018 19.9704 25.9549C20.1224 25.8918 20.2524 25.7848 20.3438 25.6476C20.4352 25.5103 20.4841 25.3489 20.4841 25.1838C20.4841 24.9628 20.3967 24.7508 20.2412 24.5944C20.0858 24.4379 19.8748 24.3498 19.6547 24.3493Z" fill="#2DA0ED"/>
<path d="M15.1046 27.7259C15.171 27.7259 15.2367 27.7128 15.298 27.6873C15.3593 27.6618 15.415 27.6245 15.4619 27.5774C15.5089 27.5303 15.5461 27.4743 15.5715 27.4128C15.5969 27.3512 15.6099 27.2853 15.6099 27.2187V26.8527C15.6099 26.7861 15.5969 26.7201 15.5715 26.6586C15.5461 26.5971 15.5089 26.5411 15.4619 26.494C15.415 26.4469 15.3593 26.4096 15.298 26.3841C15.2367 26.3586 15.171 26.3455 15.1046 26.3455C14.9706 26.3455 14.842 26.3989 14.7473 26.494C14.6525 26.5892 14.5992 26.7182 14.5992 26.8527V27.2187C14.5992 27.3532 14.6525 27.4822 14.7473 27.5774C14.842 27.6725 14.9706 27.7259 15.1046 27.7259Z" fill="#2DA0ED"/>
<path d="M9.13106 15.6133C9.68393 15.6133 10.1321 15.1634 10.1321 14.6084C10.1321 14.0534 9.68393 13.6035 9.13106 13.6035C8.57819 13.6035 8.13 14.0534 8.13 14.6084C8.13 15.1634 8.57819 15.6133 9.13106 15.6133Z" fill="#2DA0ED"/>
<path d="M12.0339 15.6133C12.5868 15.6133 13.0349 15.1634 13.0349 14.6084C13.0349 14.0534 12.5868 13.6035 12.0339 13.6035C11.481 13.6035 11.0328 14.0534 11.0328 14.6084C11.0328 15.1634 11.481 15.6133 12.0339 15.6133Z" fill="#2DA0ED"/>
<path d="M8.12805 20.4827C8.12805 20.5711 8.14543 20.6586 8.17918 20.7403C8.21294 20.8219 8.26241 20.8961 8.32477 20.9585C8.38712 21.0209 8.46113 21.0703 8.54256 21.104C8.62398 21.1376 8.71122 21.1548 8.79928 21.1546H12.7032C12.8653 21.1547 13.022 21.096 13.1443 20.9892C13.2666 20.8825 13.3463 20.7349 13.3686 20.5737C13.3677 20.566 13.3677 20.5582 13.3686 20.5505C13.3657 20.5202 13.3657 20.4898 13.3686 20.4595C13.3872 20.3119 13.4541 20.1748 13.5589 20.0696C13.6636 19.9644 13.8003 19.8972 13.9473 19.8786C13.9774 19.8757 14.0078 19.8757 14.0379 19.8786H14.0534C14.2174 19.8571 14.3677 19.7753 14.4752 19.649C14.5827 19.5227 14.6398 19.361 14.6355 19.195C14.6312 19.0289 14.5658 18.8704 14.4518 18.7499C14.3379 18.6295 14.1836 18.5556 14.0187 18.5427H13.9145C13.7414 18.5286 13.5799 18.4497 13.462 18.3217C13.3441 18.1937 13.2784 18.0258 13.278 17.8515C13.2761 17.825 13.2761 17.7985 13.278 17.7721C13.2824 17.7307 13.2908 17.6899 13.3031 17.6501C13.3059 17.6056 13.3059 17.561 13.3031 17.5165C13.3031 17.2598 13.2015 17.0135 13.0206 16.832C12.8397 16.6504 12.5944 16.5484 12.3387 16.5484C12.0829 16.5484 11.8376 16.6504 11.6567 16.832C11.4759 17.0135 11.3743 17.2598 11.3743 17.5165V19.1448C11.3743 19.323 11.3037 19.4939 11.1782 19.6199C11.0527 19.7459 10.8825 19.8167 10.705 19.8167H8.79928C8.62259 19.8167 8.45302 19.8866 8.32736 20.0113C8.2017 20.136 8.13008 20.3054 8.12805 20.4827Z" fill="#2DA0ED"/>
<path d="M9.13106 18.5466C9.68393 18.5466 10.1321 18.0967 10.1321 17.5417C10.1321 16.9867 9.68393 16.5368 9.13106 16.5368C8.57819 16.5368 8.13 16.9867 8.13 17.5417C8.13 18.0967 8.57819 18.5466 9.13106 18.5466Z" fill="#2DA0ED"/>
<path d="M12.979 16.0702C12.979 16.151 12.9949 16.2309 13.0257 16.3055C13.0566 16.3801 13.1018 16.4479 13.1588 16.5049C13.2158 16.5619 13.2834 16.6071 13.3578 16.6378C13.4322 16.6685 13.5119 16.6842 13.5924 16.684H13.6329C13.8063 16.684 13.9726 16.7531 14.0952 16.8762C14.2179 16.9993 14.2867 17.1663 14.2867 17.3403V17.8437C14.2867 18.0235 14.3579 18.1958 14.4845 18.3229C14.6111 18.45 14.7828 18.5214 14.9618 18.5214C15.1409 18.5214 15.3126 18.45 15.4392 18.3229C15.5658 18.1958 15.6369 18.0235 15.6369 17.8437V14.2986C15.6369 14.2096 15.6195 14.1215 15.5855 14.0393C15.5516 13.9571 15.5019 13.8824 15.4392 13.8194C15.3765 13.7565 15.3021 13.7066 15.2202 13.6725C15.1383 13.6385 15.0505 13.6209 14.9618 13.6209C14.8732 13.6209 14.7854 13.6385 14.7035 13.6725C14.6216 13.7066 14.5472 13.7565 14.4845 13.8194C14.4218 13.8824 14.3721 13.9571 14.3381 14.0393C14.3042 14.1215 14.2867 14.2096 14.2867 14.2986V14.802C14.2867 14.9761 14.2179 15.143 14.0952 15.2661C13.9726 15.3892 13.8063 15.4584 13.6329 15.4584H13.5924C13.4304 15.4584 13.2749 15.5227 13.16 15.6373C13.0451 15.752 12.98 15.9076 12.979 16.0702Z" fill="#2DA0ED"/>
<path d="M14.6069 20.4808V24.4306C14.6069 24.5153 14.6235 24.5991 14.6558 24.6773C14.6881 24.7555 14.7354 24.8266 14.7951 24.8865C14.8547 24.9464 14.9255 24.9938 15.0034 25.0262C15.0814 25.0586 15.1649 25.0753 15.2492 25.0753C15.3336 25.0753 15.4171 25.0586 15.495 25.0262C15.573 24.9938 15.6438 24.9464 15.7034 24.8865C15.763 24.8266 15.8104 24.7555 15.8426 24.6773C15.8749 24.5991 15.8915 24.5153 15.8915 24.4306V23.325C15.8614 23.2493 15.8457 23.1685 15.8452 23.0869C15.8457 22.916 15.9136 22.7523 16.0339 22.6315C16.1543 22.5107 16.3173 22.4426 16.4875 22.4421C16.6579 22.4421 16.8212 22.3742 16.9417 22.2533C17.0622 22.1324 17.1298 21.9684 17.1298 21.7974C17.1298 21.6264 17.1975 21.4624 17.3179 21.3415C17.4384 21.2206 17.6018 21.1526 17.7721 21.1526H21.4504C21.6294 21.1526 21.8011 21.0813 21.9277 20.9542C22.0543 20.8271 22.1255 20.6547 22.1255 20.475C22.1255 20.2953 22.0543 20.1229 21.9277 19.9958C21.8011 19.8687 21.6294 19.7973 21.4504 19.7973H17.7316C17.5712 19.7867 17.4205 19.7163 17.3091 19.5999C17.1978 19.4835 17.1338 19.3294 17.1298 19.1681C17.1298 18.9971 17.0622 18.8331 16.9417 18.7122C16.8212 18.5913 16.6579 18.5233 16.4875 18.5233C16.3172 18.5233 16.1538 18.5913 16.0334 18.7122C15.9129 18.8331 15.8452 18.9971 15.8452 19.1681V19.1855C15.845 19.3469 15.7861 19.5027 15.6796 19.6235C15.573 19.7444 15.4262 19.822 15.2666 19.8419H15.1914H15.1759C15.0196 19.8599 14.8753 19.9349 14.7704 20.0527C14.6655 20.1705 14.6073 20.3228 14.6069 20.4808Z" fill="#2DA0ED"/>
</g>
<defs>
<radialGradient id="paint0_radial_195_429" cx="0" cy="0" r="1" gradientUnits="userSpaceOnUse" gradientTransform="translate(15.2441 27.6432) scale(9.87805 0.276718)">
<stop/>
<stop offset="1" stop-color="white" stop-opacity="0"/>
</radialGradient>
<radialGradient id="paint1_radial_195_429" cx="0" cy="0" r="1" gradientUnits="userSpaceOnUse" gradientTransform="translate(19.7036 27.4351) scale(3.67401 0.184401)">
<stop/>
<stop offset="1" stop-color="white" stop-opacity="0"/>
</radialGradient>
<radialGradient id="paint2_radial_195_429" cx="0" cy="0" r="1" gradientUnits="userSpaceOnUse" gradientTransform="translate(10.524 27.4351) scale(3.67401 0.184401)">
<stop/>
<stop offset="1" stop-color="white" stop-opacity="0"/>
</radialGradient>
<clipPath id="clip0_195_429">
<rect width="126" height="31" fill="white"/>
</clipPath>
</defs>
</svg>
