<svg width="121" height="21" viewBox="0 0 121 21" fill="none" xmlns="http://www.w3.org/2000/svg">
<g clip-path="url(#clip0_595_2247)">
<path d="M25.647 0C25.0202 0 24.7297 0.135143 24.4242 0.568481L13.8152 14.5425L13.6928 14.3773L3.25191 0.568481C2.94639 0.146894 2.6101 0 1.96828 0C0.973664 0 0.5 0.344467 0.5 1.04736V16.9611H2.88484V4.00801L12.5608 16.7526C12.8363 17.0955 13.2191 17.2608 13.7694 17.2608C14.3196 17.2608 14.7017 17.0955 14.9614 16.7526L24.6712 4.00801V16.9611H27.0868V1.04736C27.0838 0.179211 26.3046 0 25.647 0Z" fill="#2DA0ED"/>
<path d="M44.3569 3.784V13.4908H34.8183C32.709 13.4908 31.9756 12.804 31.9756 10.904V3.784H29.4233V10.904C29.4233 14.1356 30.9997 15.4511 34.8198 15.4511H44.3569V16.8708C44.3569 18.5314 43.5312 18.8605 42.2168 18.8605H36.9584V21H42.2168C45.5197 21 46.8641 19.8028 46.8641 16.8708V3.784H44.3569Z" fill="#2DA0ED"/>
<path d="M62.4292 7.20886H54.3093C52.9792 7.20886 52.4589 6.76083 52.4589 5.59302V5.05539C52.4589 3.52989 53.2096 3.21921 54.3393 3.21921H59.2186V0.29895H53.973C50.5185 0.29895 49.2176 1.55563 49.2176 4.92098V5.77296C49.2176 8.40678 49.9975 9.93154 53.9723 9.93154H62.2438C63.7105 9.93154 64.3216 10.4104 64.3216 11.5474V12.4603C64.3216 13.7912 63.5274 14.06 62.213 14.06H49.2041V16.9619H62.4292C66.1577 16.9619 67.5644 15.8102 67.5644 12.7144V11.3689C67.5622 8.34581 66.1554 7.20886 62.4292 7.20886Z" fill="#2DA0ED"/>
<path d="M86.7782 11.5922V7.3146C86.7782 5.67012 86.2279 3.784 81.8989 3.784H75.2368C70.5587 3.784 69.1362 4.98045 69.1362 8.88416V11.9961C69.1362 15.526 70.8492 16.9611 75.0529 16.9611H79.3789V14.4493H75.0529C73.2513 14.4493 72.623 14.1342 72.623 12.3707V11.5922H86.7782ZM72.623 8.63151C72.623 6.55148 73.3864 6.34142 75.2826 6.34142H81.5956C82.6961 6.34142 83.2921 6.55148 83.2921 7.61426V9.51214H72.623V8.63151Z" fill="#2DA0ED"/>
<path d="M95.2472 3.784H94.9875C90.4467 3.784 88.6895 5.32639 88.6895 9.30281V16.9611H92.174V9.33366C92.174 7.14934 92.8496 6.49126 95.0941 6.49126H97.2042L95.2472 3.784Z" fill="#2DA0ED"/>
<path d="M116.401 3.784L109.17 14.2245L101.882 3.784H97.7236L106.635 16.1393C107.154 16.8568 107.782 17.3357 109.127 17.3357C110.504 17.3357 111.129 16.768 111.588 16.1393L120.5 3.784H116.401Z" fill="#2DA0ED"/>
</g>
<defs>
<clipPath id="clip0_595_2247">
<rect width="120" height="21" fill="white" transform="translate(0.5)"/>
</clipPath>
</defs>
</svg>
