<svg width="120" height="21" viewBox="0 0 120 21" fill="none" xmlns="http://www.w3.org/2000/svg">
<g clip-path="url(#clip0_399_191)">
<path d="M25.147 0C24.5202 0 24.2297 0.135143 23.9242 0.568481L13.3152 14.5425L13.1928 14.3773L2.75191 0.568481C2.44639 0.146894 2.1101 0 1.46828 0C0.473664 0 0 0.344467 0 1.04736V16.9611H2.38484V4.00801L12.0608 16.7526C12.3363 17.0955 12.7191 17.2608 13.2694 17.2608C13.8196 17.2608 14.2017 17.0955 14.4614 16.7526L24.1712 4.00801V16.9611H26.5868V1.04736C26.5838 0.179211 25.8046 0 25.147 0Z" fill="white"/>
<path d="M43.8572 3.784V13.4908H34.3186C32.2092 13.4908 31.4758 12.804 31.4758 10.904V3.784H28.9236V10.904C28.9236 14.1356 30.5 15.4511 34.3201 15.4511H43.8572V16.8708C43.8572 18.5314 43.0314 18.8605 41.717 18.8605H36.4587V21H41.717C45.0199 21 46.3643 19.8028 46.3643 16.8708V3.784H43.8572Z" fill="white"/>
<path d="M61.9292 7.20883H53.8093C52.4792 7.20883 51.9589 6.7608 51.9589 5.593V5.05536C51.9589 3.52987 52.7096 3.21918 53.8393 3.21918H58.7186V0.298927H53.473C50.0185 0.298927 48.7176 1.55561 48.7176 4.92095V5.77294C48.7176 8.40675 49.4975 9.93152 53.4723 9.93152H61.7438C63.2105 9.93152 63.8216 10.4104 63.8216 11.5474V12.4603C63.8216 13.7912 63.0274 14.06 61.713 14.06H48.7041V16.9619H61.9292C65.6577 16.9619 67.0644 15.8102 67.0644 12.7144V11.3689C67.0622 8.34579 65.6554 7.20883 61.9292 7.20883Z" fill="white"/>
<path d="M86.2782 11.5922V7.3146C86.2782 5.67012 85.728 3.784 81.399 3.784H74.7369C70.0588 3.784 68.6363 4.98045 68.6363 8.88416V11.9961C68.6363 15.526 70.3493 16.9611 74.553 16.9611H78.879V14.4493H74.553C72.7514 14.4493 72.1231 14.1342 72.1231 12.3707V11.5922H86.2782ZM72.1231 8.63151C72.1231 6.55148 72.8865 6.34142 74.7827 6.34142H81.0957C82.1962 6.34142 82.7922 6.55148 82.7922 7.61426V9.51214H72.1231V8.63151Z" fill="white"/>
<path d="M94.7471 3.784H94.4874C89.9467 3.784 88.1894 5.32639 88.1894 9.30281V16.9611H91.6739V9.33366C91.6739 7.14934 92.3495 6.49126 94.594 6.49126H96.7041L94.7471 3.784Z" fill="white"/>
<path d="M115.901 3.784L108.67 14.2245L101.381 3.784H97.2236L106.135 16.1393C106.654 16.8568 107.282 17.3357 108.627 17.3357C110.003 17.3357 110.629 16.768 111.088 16.1393L120 3.784H115.901Z" fill="white"/>
</g>
<defs>
<clipPath id="clip0_399_191">
<rect width="120" height="21" fill="white"/>
</clipPath>
</defs>
</svg>
