<svg width="142" height="43" viewBox="0 0 142 43" fill="none" xmlns="http://www.w3.org/2000/svg">
<g clip-path="url(#clip0_3011_501)">
<path d="M41.9558 0C41.4335 0 41.1914 0.115101 40.9368 0.484174L32.096 12.3858L31.994 12.2451L23.2933 0.484174C23.0387 0.125109 22.7584 0 22.2236 0C21.3947 0 21 0.293382 21 0.89203V14.4458H22.9874V3.41361L31.0507 14.2681C31.2802 14.5602 31.5993 14.701 32.0578 14.701C32.5163 14.701 32.8347 14.5602 33.0512 14.2681L41.1426 3.41361V14.4458H43.1556V0.89203C43.1531 0.152634 42.5038 0 41.9558 0Z" fill="#2DA0ED"/>
<path d="M57.5477 3.22282V11.4901H49.5988C47.841 11.4901 47.2299 10.9052 47.2299 9.28688V3.22282H45.103V9.28688C45.103 12.0393 46.4167 13.1596 49.6001 13.1596H57.5477V14.3688C57.5477 15.7832 56.8596 16.0634 55.7642 16.0634H51.3823V17.8857H55.7642C58.5166 17.8857 59.637 16.866 59.637 14.3688V3.22282H57.5477Z" fill="#2DA0ED"/>
<path d="M72.6077 6.13974H65.8411C64.7327 6.13974 64.2992 5.75816 64.2992 4.76354V4.30564C64.2992 3.00638 64.9247 2.74177 65.8662 2.74177H69.9322V0.254593H65.5609C62.6821 0.254593 61.5981 1.3249 61.5981 4.19116V4.9168C61.5981 7.16001 62.248 8.45865 65.5603 8.45865H72.4532C73.6755 8.45865 74.1847 8.8665 74.1847 9.83485V10.6124C74.1847 11.7459 73.5229 11.9748 72.4275 11.9748H61.5868V14.4464H72.6077C75.7148 14.4464 76.8871 13.4655 76.8871 10.8288V9.68284C76.8852 7.10809 75.7129 6.13974 72.6077 6.13974Z" fill="#2DA0ED"/>
<path d="M92.8985 9.87302V6.22983C92.8985 4.82923 92.44 3.22282 88.8325 3.22282H83.2807C79.3823 3.22282 78.1969 4.24184 78.1969 7.56662V10.2171C78.1969 13.2234 79.6244 14.4458 83.1275 14.4458H86.7325V12.3064H83.1275C81.6262 12.3064 81.1026 12.038 81.1026 10.5361V9.87302H92.8985ZM81.1026 7.35144C81.1026 5.57989 81.7387 5.40098 83.3189 5.40098H88.5797C89.4968 5.40098 89.9935 5.57989 89.9935 6.48505V8.10147H81.1026V7.35144Z" fill="#2DA0ED"/>
<path d="M99.956 3.22282H99.7396C95.9556 3.22282 94.4912 4.53647 94.4912 7.92319V14.4458H97.395V7.94946C97.395 6.08908 97.958 5.52859 99.8284 5.52859H101.587L99.956 3.22282Z" fill="#2DA0ED"/>
<path d="M117.585 3.22282L111.559 12.115L105.485 3.22282H102.02L109.446 13.7458C109.878 14.3569 110.402 14.7648 111.522 14.7648C112.67 14.7648 113.191 14.2812 113.574 13.7458L121 3.22282H117.585Z" fill="#2DA0ED"/>
<path d="M4.374 41.0057C3.602 41.0057 2.936 40.8297 2.376 40.4777C1.816 40.1257 1.384 39.6197 1.08 38.9597C0.78 38.2957 0.63 37.4997 0.63 36.5717C0.63 35.6357 0.784 34.8337 1.092 34.1657C1.404 33.4937 1.846 32.9797 2.418 32.6237C2.99 32.2677 3.662 32.0897 4.434 32.0897C4.894 32.0897 5.32 32.1677 5.712 32.3237C6.108 32.4797 6.456 32.6917 6.756 32.9597C7.06 33.2277 7.3 33.5317 7.476 33.8717C7.652 34.2117 7.752 34.5677 7.776 34.9397H6.408C6.352 34.6317 6.232 34.3477 6.048 34.0877C5.868 33.8237 5.638 33.6117 5.358 33.4517C5.078 33.2917 4.762 33.2117 4.41 33.2117C3.942 33.2117 3.528 33.3277 3.168 33.5597C2.808 33.7917 2.526 34.1537 2.322 34.6457C2.122 35.1337 2.022 35.7657 2.022 36.5417C2.022 37.1457 2.084 37.6597 2.208 38.0837C2.336 38.5077 2.51 38.8497 2.73 39.1097C2.95 39.3697 3.208 39.5597 3.504 39.6797C3.8 39.7957 4.116 39.8537 4.452 39.8537C4.784 39.8537 5.076 39.7957 5.328 39.6797C5.58 39.5637 5.79 39.4137 5.958 39.2297C6.13 39.0457 6.262 38.8477 6.354 38.6357C6.45 38.4197 6.506 38.2117 6.522 38.0117L6.564 37.3097H4.536V36.3857L7.902 36.3977V40.8857H6.972V39.6137C6.82 39.8497 6.63 40.0737 6.402 40.2857C6.174 40.4977 5.894 40.6717 5.562 40.8077C5.23 40.9397 4.834 41.0057 4.374 41.0057ZM9.95281 40.8857V34.6817H11.1828V35.9537C11.2868 35.6497 11.4308 35.3957 11.6148 35.1917C11.8028 34.9837 12.0208 34.8277 12.2688 34.7237C12.5168 34.6157 12.7788 34.5617 13.0548 34.5617C13.1388 34.5617 13.2188 34.5677 13.2948 34.5797C13.3708 34.5877 13.4308 34.6037 13.4748 34.6277V35.8637C13.4228 35.8397 13.3548 35.8237 13.2708 35.8157C13.1908 35.8077 13.1208 35.8017 13.0608 35.7977C12.7888 35.7777 12.5408 35.7917 12.3168 35.8397C12.0928 35.8877 11.8988 35.9677 11.7348 36.0797C11.5748 36.1917 11.4508 36.3377 11.3628 36.5177C11.2788 36.6977 11.2368 36.9097 11.2368 37.1537V40.8857H9.95281ZM17.3843 41.0057C16.8043 41.0057 16.2983 40.8817 15.8663 40.6337C15.4343 40.3817 15.0983 40.0177 14.8583 39.5417C14.6183 39.0657 14.4983 38.4897 14.4983 37.8137C14.4983 37.1617 14.6123 36.5917 14.8403 36.1037C15.0683 35.6157 15.3963 35.2377 15.8243 34.9697C16.2563 34.6977 16.7783 34.5617 17.3903 34.5617C17.9743 34.5617 18.4803 34.6897 18.9083 34.9457C19.3363 35.1977 19.6683 35.5677 19.9043 36.0557C20.1403 36.5397 20.2583 37.1257 20.2583 37.8137C20.2583 38.4417 20.1483 38.9957 19.9283 39.4757C19.7083 39.9557 19.3843 40.3317 18.9563 40.6037C18.5323 40.8717 18.0083 41.0057 17.3843 41.0057ZM17.3903 40.0157C17.7463 40.0157 18.0423 39.9237 18.2783 39.7397C18.5143 39.5517 18.6923 39.2897 18.8123 38.9537C18.9323 38.6137 18.9923 38.2217 18.9923 37.7777C18.9923 37.3657 18.9383 36.9917 18.8303 36.6557C18.7263 36.3157 18.5563 36.0457 18.3203 35.8457C18.0883 35.6457 17.7783 35.5457 17.3903 35.5457C17.0343 35.5457 16.7343 35.6377 16.4903 35.8217C16.2503 36.0017 16.0703 36.2597 15.9503 36.5957C15.8303 36.9277 15.7703 37.3217 15.7703 37.7777C15.7703 38.1817 15.8243 38.5537 15.9323 38.8937C16.0403 39.2337 16.2123 39.5057 16.4483 39.7097C16.6883 39.9137 17.0023 40.0157 17.3903 40.0157ZM24.1172 41.0057C23.8052 41.0017 23.5072 40.9557 23.2232 40.8677C22.9392 40.7797 22.6852 40.6477 22.4612 40.4717C22.2412 40.2957 22.0652 40.0777 21.9332 39.8177C21.8052 39.5577 21.7412 39.2557 21.7412 38.9117V34.6817H23.0312V38.7737C23.0312 39.1457 23.1472 39.4477 23.3792 39.6797C23.6112 39.9117 23.9612 40.0277 24.4292 40.0277C24.8532 40.0277 25.1932 39.9177 25.4492 39.6977C25.7052 39.4737 25.8332 39.1477 25.8332 38.7197V34.6817H27.1112V40.8857H26.1152L25.9712 39.6857C25.8992 40.0097 25.7692 40.2697 25.5812 40.4657C25.3972 40.6577 25.1772 40.7977 24.9212 40.8857C24.6692 40.9697 24.4012 41.0097 24.1172 41.0057ZM29.127 42.8177V34.6817H30.411L30.423 35.7137C30.499 35.5777 30.597 35.4437 30.717 35.3117C30.837 35.1757 30.979 35.0517 31.143 34.9397C31.311 34.8237 31.501 34.7317 31.713 34.6637C31.929 34.5957 32.167 34.5617 32.427 34.5617C32.915 34.5617 33.345 34.6757 33.717 34.9037C34.093 35.1277 34.385 35.4737 34.593 35.9417C34.805 36.4057 34.911 36.9957 34.911 37.7117C34.911 38.4317 34.805 39.0357 34.593 39.5237C34.385 40.0117 34.087 40.3817 33.699 40.6337C33.311 40.8817 32.851 41.0057 32.319 41.0057C32.063 41.0057 31.833 40.9697 31.629 40.8977C31.425 40.8257 31.245 40.7317 31.089 40.6157C30.933 40.4957 30.799 40.3677 30.687 40.2317C30.579 40.0917 30.489 39.9537 30.417 39.8177V42.8177H29.127ZM32.049 40.0277C32.525 40.0277 32.915 39.8437 33.219 39.4757C33.527 39.1037 33.681 38.5237 33.681 37.7357C33.681 37.0597 33.539 36.5257 33.255 36.1337C32.975 35.7377 32.573 35.5397 32.049 35.5397C31.509 35.5397 31.101 35.7457 30.825 36.1577C30.549 36.5657 30.411 37.0917 30.411 37.7357C30.411 38.1557 30.471 38.5397 30.591 38.8877C30.715 39.2317 30.899 39.5077 31.143 39.7157C31.387 39.9237 31.689 40.0277 32.049 40.0277ZM43.0937 41.0057C42.3057 41.0057 41.6237 40.8317 41.0477 40.4837C40.4757 40.1317 40.0337 39.6257 39.7217 38.9657C39.4137 38.3017 39.2597 37.5017 39.2597 36.5657C39.2597 35.6217 39.4157 34.8177 39.7277 34.1537C40.0437 33.4857 40.4877 32.9757 41.0597 32.6237C41.6357 32.2677 42.3137 32.0897 43.0937 32.0897C43.8697 32.0897 44.5417 32.2677 45.1097 32.6237C45.6817 32.9757 46.1217 33.4857 46.4297 34.1537C46.7417 34.8177 46.8977 35.6217 46.8977 36.5657C46.8977 37.5017 46.7437 38.2997 46.4357 38.9597C46.1277 39.6197 45.6877 40.1257 45.1157 40.4777C44.5477 40.8297 43.8737 41.0057 43.0937 41.0057ZM43.0937 39.9077C43.5977 39.9077 44.0277 39.7917 44.3837 39.5597C44.7437 39.3277 45.0177 38.9657 45.2057 38.4737C45.3937 37.9817 45.4877 37.3517 45.4877 36.5837C45.4877 35.7957 45.3917 35.1517 45.1997 34.6517C45.0117 34.1517 44.7377 33.7837 44.3777 33.5477C44.0217 33.3077 43.5937 33.1876 43.0937 33.1876C42.5937 33.1876 42.1617 33.3077 41.7977 33.5477C41.4377 33.7877 41.1597 34.1576 40.9637 34.6576C40.7677 35.1577 40.6697 35.7997 40.6697 36.5837C40.6697 37.3557 40.7677 37.9877 40.9637 38.4797C41.1597 38.9677 41.4377 39.3277 41.7977 39.5597C42.1617 39.7917 42.5937 39.9077 43.0937 39.9077ZM48.4888 40.8857V34.6817H49.7188V35.9537C49.8228 35.6497 49.9668 35.3957 50.1508 35.1917C50.3388 34.9837 50.5568 34.8277 50.8048 34.7237C51.0528 34.6157 51.3148 34.5617 51.5908 34.5617C51.6748 34.5617 51.7548 34.5677 51.8308 34.5797C51.9068 34.5877 51.9668 34.6037 52.0108 34.6277V35.8637C51.9588 35.8397 51.8908 35.8237 51.8068 35.8157C51.7268 35.8077 51.6568 35.8017 51.5968 35.7977C51.3248 35.7777 51.0768 35.7917 50.8528 35.8397C50.6288 35.8877 50.4348 35.9677 50.2708 36.0797C50.1108 36.1917 49.9868 36.3377 49.8988 36.5177C49.8148 36.6977 49.7728 36.9097 49.7728 37.1537V40.8857H48.4888ZM55.6622 41.0057C54.8502 41.0057 54.2082 40.7277 53.7362 40.1717C53.2682 39.6117 53.0342 38.8057 53.0342 37.7537C53.0342 37.1097 53.1282 36.5497 53.3162 36.0737C53.5082 35.5937 53.7902 35.2217 54.1622 34.9577C54.5342 34.6937 54.9982 34.5617 55.5542 34.5617C55.8302 34.5617 56.0782 34.5957 56.2982 34.6637C56.5182 34.7317 56.7102 34.8197 56.8742 34.9277C57.0382 35.0357 57.1762 35.1517 57.2882 35.2757C57.4002 35.3997 57.4842 35.5157 57.5402 35.6237V31.9697H58.8362V40.8857H57.8702L57.7262 39.6137C57.6822 39.7497 57.6142 39.8977 57.5222 40.0577C57.4342 40.2177 57.3102 40.3697 57.1502 40.5137C56.9942 40.6577 56.7942 40.7757 56.5502 40.8677C56.3062 40.9597 56.0102 41.0057 55.6622 41.0057ZM55.9082 40.0397C56.4842 40.0397 56.9002 39.8597 57.1562 39.4997C57.4122 39.1357 57.5402 38.5397 57.5402 37.7117C57.5362 37.2437 57.4782 36.8477 57.3662 36.5237C57.2582 36.1997 57.0862 35.9557 56.8502 35.7917C56.6182 35.6237 56.3122 35.5397 55.9322 35.5397C55.4562 35.5397 55.0662 35.7117 54.7622 36.0557C54.4622 36.3957 54.3122 36.9477 54.3122 37.7117C54.3122 38.4637 54.4482 39.0397 54.7202 39.4397C54.9962 39.8397 55.3922 40.0397 55.9082 40.0397ZM63.4596 41.0057C62.8716 41.0057 62.3536 40.8797 61.9056 40.6277C61.4576 40.3717 61.1076 40.0077 60.8556 39.5357C60.6076 39.0637 60.4836 38.5017 60.4836 37.8497C60.4836 37.2057 60.5976 36.6377 60.8256 36.1457C61.0536 35.6497 61.3836 35.2617 61.8156 34.9817C62.2476 34.7017 62.7676 34.5617 63.3756 34.5617C63.9716 34.5617 64.4756 34.6897 64.8876 34.9457C65.2996 35.2017 65.6116 35.5617 65.8236 36.0257C66.0356 36.4857 66.1416 37.0297 66.1416 37.6577V38.0837H61.7736C61.7696 38.4557 61.8296 38.7897 61.9536 39.0857C62.0776 39.3777 62.2616 39.6097 62.5056 39.7817C62.7536 39.9497 63.0616 40.0337 63.4296 40.0337C63.8016 40.0337 64.1216 39.9497 64.3896 39.7817C64.6616 39.6137 64.8396 39.3637 64.9236 39.0317H66.1116C66.0396 39.4557 65.8696 39.8157 65.6016 40.1117C65.3336 40.4077 65.0116 40.6317 64.6356 40.7837C64.2596 40.9317 63.8676 41.0057 63.4596 41.0057ZM61.7736 37.2497H64.9176C64.9176 36.9257 64.8616 36.6317 64.7496 36.3677C64.6376 36.0997 64.4656 35.8897 64.2336 35.7377C64.0056 35.5817 63.7176 35.5037 63.3696 35.5037C63.0136 35.5037 62.7176 35.5897 62.4816 35.7617C62.2456 35.9337 62.0676 36.1537 61.9476 36.4217C61.8316 36.6897 61.7736 36.9657 61.7736 37.2497ZM67.8036 40.8857V34.6817H69.0336V35.9537C69.1376 35.6497 69.2816 35.3957 69.4656 35.1917C69.6536 34.9837 69.8716 34.8277 70.1196 34.7237C70.3676 34.6157 70.6296 34.5617 70.9056 34.5617C70.9896 34.5617 71.0696 34.5677 71.1456 34.5797C71.2216 34.5877 71.2816 34.6037 71.3256 34.6277V35.8637C71.2736 35.8397 71.2056 35.8237 71.1216 35.8157C71.0416 35.8077 70.9716 35.8017 70.9116 35.7977C70.6396 35.7777 70.3916 35.7917 70.1676 35.8397C69.9436 35.8877 69.7496 35.9677 69.5856 36.0797C69.4256 36.1917 69.3016 36.3377 69.2136 36.5177C69.1296 36.6977 69.0876 36.9097 69.0876 37.1537V40.8857H67.8036ZM79.3308 41.0057C78.5468 41.0057 77.8748 40.8257 77.3148 40.4657C76.7548 40.1017 76.3248 39.5857 76.0248 38.9177C75.7288 38.2457 75.5808 37.4417 75.5808 36.5057C75.5808 35.5737 75.7288 34.7797 76.0248 34.1237C76.3208 33.4637 76.7488 32.9597 77.3088 32.6117C77.8688 32.2637 78.5428 32.0897 79.3308 32.0897C79.9548 32.0897 80.5088 32.2177 80.9928 32.4737C81.4768 32.7297 81.8648 33.0737 82.1568 33.5057C82.4528 33.9377 82.6288 34.4157 82.6848 34.9397H81.3168C81.2568 34.6117 81.1408 34.3157 80.9688 34.0517C80.8008 33.7837 80.5768 33.5737 80.2968 33.4217C80.0168 33.2657 79.6848 33.1876 79.3008 33.1876C78.8088 33.1876 78.3908 33.3037 78.0468 33.5357C77.7028 33.7677 77.4408 34.1297 77.2608 34.6217C77.0848 35.1137 76.9968 35.7477 76.9968 36.5237C76.9968 37.6957 77.1948 38.5537 77.5908 39.0977C77.9868 39.6377 78.5568 39.9077 79.3008 39.9077C79.6848 39.9077 80.0168 39.8257 80.2968 39.6617C80.5768 39.4937 80.8008 39.2717 80.9688 38.9957C81.1408 38.7157 81.2568 38.4117 81.3168 38.0837H82.6848C82.6368 38.4637 82.5368 38.8297 82.3848 39.1817C82.2328 39.5297 82.0208 39.8417 81.7488 40.1177C81.4808 40.3937 81.1468 40.6117 80.7468 40.7717C80.3468 40.9277 79.8748 41.0057 79.3308 41.0057ZM86.9085 41.0057C86.3285 41.0057 85.8225 40.8817 85.3905 40.6337C84.9585 40.3817 84.6225 40.0177 84.3825 39.5417C84.1425 39.0657 84.0225 38.4897 84.0225 37.8137C84.0225 37.1617 84.1365 36.5917 84.3645 36.1037C84.5925 35.6157 84.9205 35.2377 85.3485 34.9697C85.7805 34.6977 86.3025 34.5617 86.9145 34.5617C87.4985 34.5617 88.0045 34.6897 88.4325 34.9457C88.8605 35.1977 89.1925 35.5677 89.4285 36.0557C89.6645 36.5397 89.7825 37.1257 89.7825 37.8137C89.7825 38.4417 89.6725 38.9957 89.4525 39.4757C89.2325 39.9557 88.9085 40.3317 88.4805 40.6037C88.0565 40.8717 87.5325 41.0057 86.9085 41.0057ZM86.9145 40.0157C87.2705 40.0157 87.5665 39.9237 87.8025 39.7397C88.0385 39.5517 88.2165 39.2897 88.3365 38.9537C88.4565 38.6137 88.5165 38.2217 88.5165 37.7777C88.5165 37.3657 88.4625 36.9917 88.3545 36.6557C88.2505 36.3157 88.0805 36.0457 87.8445 35.8457C87.6125 35.6457 87.3025 35.5457 86.9145 35.5457C86.5585 35.5457 86.2585 35.6377 86.0145 35.8217C85.7745 36.0017 85.5945 36.2597 85.4745 36.5957C85.3545 36.9277 85.2945 37.3217 85.2945 37.7777C85.2945 38.1817 85.3485 38.5537 85.4565 38.8937C85.5645 39.2337 85.7365 39.5057 85.9725 39.7097C86.2125 39.9137 86.5265 40.0157 86.9145 40.0157ZM93.6708 41.0057C92.8588 41.0057 92.2168 40.7277 91.7448 40.1717C91.2768 39.6117 91.0428 38.8057 91.0428 37.7537C91.0428 37.1097 91.1368 36.5497 91.3248 36.0737C91.5168 35.5937 91.7988 35.2217 92.1708 34.9577C92.5428 34.6937 93.0068 34.5617 93.5628 34.5617C93.8388 34.5617 94.0868 34.5957 94.3068 34.6637C94.5268 34.7317 94.7188 34.8197 94.8828 34.9277C95.0468 35.0357 95.1848 35.1517 95.2968 35.2757C95.4088 35.3997 95.4928 35.5157 95.5488 35.6237V31.9697H96.8448V40.8857H95.8788L95.7348 39.6137C95.6908 39.7497 95.6228 39.8977 95.5308 40.0577C95.4428 40.2177 95.3188 40.3697 95.1588 40.5137C95.0028 40.6577 94.8028 40.7757 94.5588 40.8677C94.3148 40.9597 94.0188 41.0057 93.6708 41.0057ZM93.9168 40.0397C94.4928 40.0397 94.9088 39.8597 95.1648 39.4997C95.4208 39.1357 95.5488 38.5397 95.5488 37.7117C95.5448 37.2437 95.4868 36.8477 95.3748 36.5237C95.2668 36.1997 95.0948 35.9557 94.8588 35.7917C94.6268 35.6237 94.3208 35.5397 93.9408 35.5397C93.4648 35.5397 93.0748 35.7117 92.7708 36.0557C92.4708 36.3957 92.3208 36.9477 92.3208 37.7117C92.3208 38.4637 92.4568 39.0397 92.7288 39.4397C93.0048 39.8397 93.4008 40.0397 93.9168 40.0397ZM101.468 41.0057C100.88 41.0057 100.362 40.8797 99.9142 40.6277C99.4662 40.3717 99.1162 40.0077 98.8642 39.5357C98.6162 39.0637 98.4922 38.5017 98.4922 37.8497C98.4922 37.2057 98.6062 36.6377 98.8342 36.1457C99.0622 35.6497 99.3922 35.2617 99.8242 34.9817C100.256 34.7017 100.776 34.5617 101.384 34.5617C101.98 34.5617 102.484 34.6897 102.896 34.9457C103.308 35.2017 103.62 35.5617 103.832 36.0257C104.044 36.4857 104.15 37.0297 104.15 37.6577V38.0837H99.7822C99.7782 38.4557 99.8382 38.7897 99.9622 39.0857C100.086 39.3777 100.27 39.6097 100.514 39.7817C100.762 39.9497 101.07 40.0337 101.438 40.0337C101.81 40.0337 102.13 39.9497 102.398 39.7817C102.67 39.6137 102.848 39.3637 102.932 39.0317H104.12C104.048 39.4557 103.878 39.8157 103.61 40.1117C103.342 40.4077 103.02 40.6317 102.644 40.7837C102.268 40.9317 101.876 41.0057 101.468 41.0057ZM99.7822 37.2497H102.926C102.926 36.9257 102.87 36.6317 102.758 36.3677C102.646 36.0997 102.474 35.8897 102.242 35.7377C102.014 35.5817 101.726 35.5037 101.378 35.5037C101.022 35.5037 100.726 35.5897 100.49 35.7617C100.254 35.9337 100.076 36.1537 99.9562 36.4217C99.8402 36.6897 99.7822 36.9657 99.7822 37.2497ZM105.584 36.4397V34.9037H107.072V36.4397H105.584ZM105.584 40.8497V39.3197H107.072V40.8497H105.584ZM111.429 40.8857L114.561 32.2097H115.977L119.103 40.8857H117.807L116.991 38.6117H113.553L112.731 40.8857H111.429ZM113.871 37.4477H116.655L115.263 33.4577L113.871 37.4477ZM123.771 41.0177C123.227 41.0177 122.723 40.9257 122.259 40.7417C121.795 40.5537 121.395 40.2977 121.059 39.9737C120.727 39.6457 120.481 39.2677 120.321 38.8397L121.395 38.3297C121.539 38.6417 121.717 38.9217 121.929 39.1697C122.141 39.4137 122.391 39.6057 122.679 39.7457C122.967 39.8817 123.297 39.9497 123.669 39.9497C124.257 39.9497 124.731 39.7837 125.091 39.4517C125.451 39.1157 125.631 38.6617 125.631 38.0897C125.631 37.7337 125.547 37.4217 125.379 37.1537C125.211 36.8857 124.985 36.6777 124.701 36.5297C124.417 36.3777 124.099 36.3017 123.747 36.3017C123.527 36.3017 123.321 36.3217 123.129 36.3617C122.937 36.3977 122.745 36.4717 122.553 36.5837C122.365 36.6917 122.165 36.8537 121.953 37.0697C121.921 37.0857 121.897 37.0937 121.881 37.0937C121.869 37.0937 121.843 37.0837 121.803 37.0637L120.777 36.6917L121.173 32.2097H126.459L126.417 33.2957H122.235L122.031 35.9057C122.327 35.6657 122.639 35.4937 122.967 35.3897C123.295 35.2817 123.651 35.2277 124.035 35.2277C124.575 35.2277 125.067 35.3357 125.511 35.5517C125.959 35.7677 126.317 36.0857 126.585 36.5057C126.853 36.9217 126.987 37.4357 126.987 38.0477C126.987 38.6517 126.855 39.1757 126.591 39.6197C126.327 40.0637 125.953 40.4077 125.469 40.6517C124.989 40.8957 124.423 41.0177 123.771 41.0177ZM129.952 40.8857V34.0937H128.308V33.2957C128.82 33.2957 129.222 33.2557 129.514 33.1757C129.81 33.0917 130.022 32.9697 130.15 32.8097C130.282 32.6457 130.356 32.4457 130.372 32.2097H131.266V40.8857H129.952ZM137.287 41.0057C136.503 41.0057 135.831 40.8257 135.271 40.4657C134.711 40.1017 134.281 39.5857 133.981 38.9177C133.685 38.2457 133.537 37.4417 133.537 36.5057C133.537 35.5737 133.685 34.7797 133.981 34.1237C134.277 33.4637 134.705 32.9597 135.265 32.6117C135.825 32.2637 136.499 32.0897 137.287 32.0897C137.911 32.0897 138.465 32.2177 138.949 32.4737C139.433 32.7297 139.821 33.0737 140.113 33.5057C140.409 33.9377 140.585 34.4157 140.641 34.9397H139.273C139.213 34.6117 139.097 34.3157 138.925 34.0517C138.757 33.7837 138.533 33.5737 138.253 33.4217C137.973 33.2657 137.641 33.1876 137.257 33.1876C136.765 33.1876 136.347 33.3037 136.003 33.5357C135.659 33.7677 135.397 34.1297 135.217 34.6217C135.041 35.1137 134.953 35.7477 134.953 36.5237C134.953 37.6957 135.151 38.5537 135.547 39.0977C135.943 39.6377 136.513 39.9077 137.257 39.9077C137.641 39.9077 137.973 39.8257 138.253 39.6617C138.533 39.4937 138.757 39.2717 138.925 38.9957C139.097 38.7157 139.213 38.4117 139.273 38.0837H140.641C140.593 38.4637 140.493 38.8297 140.341 39.1817C140.189 39.5297 139.977 39.8417 139.705 40.1177C139.437 40.3937 139.103 40.6117 138.703 40.7717C138.303 40.9277 137.831 41.0057 137.287 41.0057Z" fill="#2DA0ED"/>
</g>
<defs>
<clipPath id="clip0_3011_501">
<rect width="142" height="43" fill="white"/>
</clipPath>
</defs>
</svg>
