<svg width="143" height="42" viewBox="0 0 143 42" fill="none" xmlns="http://www.w3.org/2000/svg">
<g clip-path="url(#clip0_399_201)">
<path d="M42.4558 0.557175C41.9335 0.557175 41.6914 0.672275 41.4368 1.04135L32.596 12.943L32.494 12.8023L23.7933 1.04135C23.5387 0.682284 23.2584 0.557175 22.7236 0.557175C21.8947 0.557175 21.5 0.850556 21.5 1.44921V15.0029H23.4874V3.97079L31.5507 14.8253C31.7802 15.1174 32.0993 15.2582 32.5578 15.2582C33.0163 15.2582 33.3347 15.1174 33.5512 14.8253L41.6426 3.97079V15.0029H43.6556V1.44921C43.6531 0.709808 43.0038 0.557175 42.4558 0.557175Z" fill="#2DA0ED"/>
<path d="M58.0476 3.77999V12.0472H50.0988C48.341 12.0472 47.7298 11.4623 47.7298 9.84405V3.77999H45.603V9.84405C45.603 12.5965 46.9166 13.7168 50.1 13.7168H58.0476V14.926C58.0476 16.3404 57.3595 16.6206 56.2642 16.6206H51.8822V18.4428H56.2642C59.0166 18.4428 60.1369 17.4232 60.1369 14.926V3.77999H58.0476Z" fill="#2DA0ED"/>
<path d="M73.1077 6.69692H66.3411C65.2327 6.69692 64.7992 6.31534 64.7992 5.32072V4.86282C64.7992 3.56355 65.4247 3.29895 66.3662 3.29895H70.4322V0.811771H66.0609C63.1821 0.811771 62.0981 1.88208 62.0981 4.74834V5.47398C62.0981 7.71719 62.748 9.01582 66.0603 9.01582H72.9532C74.1755 9.01582 74.6847 9.42368 74.6847 10.392V11.1696C74.6847 12.3031 74.0229 12.532 72.9275 12.532H62.0868V15.0036H73.1077C76.2148 15.0036 77.3871 14.0227 77.3871 11.386V10.24C77.3852 7.66527 76.2129 6.69692 73.1077 6.69692Z" fill="#2DA0ED"/>
<path d="M93.3985 10.4302V6.787C93.3985 5.3864 92.94 3.77999 89.3325 3.77999H83.7807C79.8823 3.77999 78.6969 4.79901 78.6969 8.1238V10.7742C78.6969 13.7806 80.1244 15.0029 83.6275 15.0029H87.2325V12.8636H83.6275C82.1262 12.8636 81.6026 12.5952 81.6026 11.0933V10.4302H93.3985ZM81.6026 7.90861C81.6026 6.13706 82.2387 5.95815 83.8189 5.95815H89.0797C89.9968 5.95815 90.4935 6.13706 90.4935 7.04222V8.65864H81.6026V7.90861Z" fill="#2DA0ED"/>
<path d="M100.456 3.77999H100.24C96.4556 3.77999 94.9912 5.09364 94.9912 8.48036V15.0029H97.895V8.50663C97.895 6.64625 98.458 6.08576 100.328 6.08576H102.087L100.456 3.77999Z" fill="#2DA0ED"/>
<path d="M118.085 3.77999L112.059 12.6721L105.985 3.77999H102.52L109.946 14.303C110.378 14.9141 110.902 15.322 112.022 15.322C113.17 15.322 113.691 14.8384 114.074 14.303L121.5 3.77999H118.085Z" fill="#2DA0ED"/>
<path d="M4.874 41.5628C4.102 41.5628 3.436 41.3868 2.876 41.0348C2.316 40.6828 1.884 40.1768 1.58 39.5168C1.28 38.8528 1.13 38.0568 1.13 37.1288C1.13 36.1928 1.284 35.3908 1.592 34.7228C1.904 34.0508 2.346 33.5368 2.918 33.1808C3.49 32.8248 4.162 32.6468 4.934 32.6468C5.394 32.6468 5.82 32.7248 6.212 32.8808C6.608 33.0368 6.956 33.2488 7.256 33.5168C7.56 33.7848 7.8 34.0888 7.976 34.4288C8.152 34.7688 8.252 35.1248 8.276 35.4968H6.908C6.852 35.1888 6.732 34.9048 6.548 34.6448C6.368 34.3808 6.138 34.1688 5.858 34.0088C5.578 33.8488 5.262 33.7688 4.91 33.7688C4.442 33.7688 4.028 33.8848 3.668 34.1168C3.308 34.3488 3.026 34.7108 2.822 35.2028C2.622 35.6908 2.522 36.3228 2.522 37.0988C2.522 37.7028 2.584 38.2168 2.708 38.6408C2.836 39.0648 3.01 39.4068 3.23 39.6668C3.45 39.9268 3.708 40.1168 4.004 40.2368C4.3 40.3528 4.616 40.4108 4.952 40.4108C5.284 40.4108 5.576 40.3528 5.828 40.2368C6.08 40.1208 6.29 39.9708 6.458 39.7868C6.63 39.6028 6.762 39.4048 6.854 39.1928C6.95 38.9768 7.006 38.7688 7.022 38.5688L7.064 37.8668H5.036V36.9428L8.402 36.9548V41.4428H7.472V40.1708C7.32 40.4068 7.13 40.6308 6.902 40.8428C6.674 41.0548 6.394 41.2288 6.062 41.3648C5.73 41.4968 5.334 41.5628 4.874 41.5628ZM10.4528 41.4428V35.2388H11.6828V36.5108C11.7868 36.2068 11.9308 35.9528 12.1148 35.7488C12.3028 35.5408 12.5208 35.3848 12.7688 35.2808C13.0168 35.1728 13.2788 35.1188 13.5548 35.1188C13.6388 35.1188 13.7188 35.1248 13.7948 35.1368C13.8708 35.1448 13.9308 35.1608 13.9748 35.1848V36.4208C13.9228 36.3968 13.8548 36.3808 13.7708 36.3728C13.6908 36.3648 13.6208 36.3588 13.5608 36.3548C13.2888 36.3348 13.0408 36.3488 12.8168 36.3968C12.5928 36.4448 12.3988 36.5248 12.2348 36.6368C12.0748 36.7488 11.9508 36.8948 11.8628 37.0748C11.7788 37.2548 11.7368 37.4668 11.7368 37.7108V41.4428H10.4528ZM17.8843 41.5628C17.3043 41.5628 16.7983 41.4388 16.3663 41.1908C15.9343 40.9388 15.5983 40.5748 15.3583 40.0988C15.1183 39.6228 14.9983 39.0468 14.9983 38.3708C14.9983 37.7188 15.1123 37.1488 15.3403 36.6608C15.5683 36.1728 15.8963 35.7948 16.3243 35.5268C16.7563 35.2548 17.2783 35.1188 17.8903 35.1188C18.4743 35.1188 18.9803 35.2468 19.4083 35.5028C19.8363 35.7548 20.1683 36.1248 20.4043 36.6128C20.6403 37.0968 20.7583 37.6828 20.7583 38.3708C20.7583 38.9988 20.6483 39.5528 20.4283 40.0328C20.2083 40.5128 19.8843 40.8888 19.4563 41.1608C19.0323 41.4288 18.5083 41.5628 17.8843 41.5628ZM17.8903 40.5728C18.2463 40.5728 18.5423 40.4808 18.7783 40.2968C19.0143 40.1088 19.1923 39.8468 19.3123 39.5108C19.4323 39.1708 19.4923 38.7788 19.4923 38.3348C19.4923 37.9228 19.4383 37.5488 19.3303 37.2128C19.2263 36.8728 19.0563 36.6028 18.8203 36.4028C18.5883 36.2028 18.2783 36.1028 17.8903 36.1028C17.5343 36.1028 17.2343 36.1948 16.9903 36.3788C16.7503 36.5588 16.5703 36.8168 16.4503 37.1528C16.3303 37.4848 16.2703 37.8788 16.2703 38.3348C16.2703 38.7388 16.3243 39.1108 16.4323 39.4508C16.5403 39.7908 16.7123 40.0628 16.9483 40.2668C17.1883 40.4708 17.5023 40.5728 17.8903 40.5728ZM24.6172 41.5628C24.3052 41.5588 24.0072 41.5128 23.7232 41.4248C23.4392 41.3368 23.1852 41.2048 22.9612 41.0288C22.7412 40.8528 22.5652 40.6348 22.4332 40.3748C22.3052 40.1148 22.2412 39.8128 22.2412 39.4688V35.2388H23.5312V39.3308C23.5312 39.7028 23.6472 40.0048 23.8792 40.2368C24.1112 40.4688 24.4612 40.5848 24.9292 40.5848C25.3532 40.5848 25.6932 40.4748 25.9492 40.2548C26.2052 40.0308 26.3332 39.7048 26.3332 39.2768V35.2388H27.6112V41.4428H26.6152L26.4712 40.2428C26.3992 40.5668 26.2692 40.8268 26.0812 41.0228C25.8972 41.2148 25.6772 41.3548 25.4212 41.4428C25.1692 41.5268 24.9012 41.5668 24.6172 41.5628ZM29.627 43.3748V35.2388H30.911L30.923 36.2708C30.999 36.1348 31.097 36.0008 31.217 35.8688C31.337 35.7328 31.479 35.6088 31.643 35.4968C31.811 35.3808 32.001 35.2888 32.213 35.2208C32.429 35.1528 32.667 35.1188 32.927 35.1188C33.415 35.1188 33.845 35.2328 34.217 35.4608C34.593 35.6848 34.885 36.0308 35.093 36.4988C35.305 36.9628 35.411 37.5528 35.411 38.2688C35.411 38.9888 35.305 39.5928 35.093 40.0808C34.885 40.5688 34.587 40.9388 34.199 41.1908C33.811 41.4388 33.351 41.5628 32.819 41.5628C32.563 41.5628 32.333 41.5268 32.129 41.4548C31.925 41.3828 31.745 41.2888 31.589 41.1728C31.433 41.0528 31.299 40.9248 31.187 40.7888C31.079 40.6488 30.989 40.5108 30.917 40.3748V43.3748H29.627ZM32.549 40.5848C33.025 40.5848 33.415 40.4008 33.719 40.0328C34.027 39.6608 34.181 39.0808 34.181 38.2928C34.181 37.6168 34.039 37.0828 33.755 36.6908C33.475 36.2948 33.073 36.0968 32.549 36.0968C32.009 36.0968 31.601 36.3028 31.325 36.7148C31.049 37.1228 30.911 37.6488 30.911 38.2928C30.911 38.7128 30.971 39.0968 31.091 39.4448C31.215 39.7888 31.399 40.0648 31.643 40.2728C31.887 40.4808 32.189 40.5848 32.549 40.5848ZM43.5937 41.5628C42.8057 41.5628 42.1237 41.3888 41.5477 41.0408C40.9757 40.6888 40.5337 40.1828 40.2217 39.5228C39.9137 38.8588 39.7597 38.0588 39.7597 37.1228C39.7597 36.1788 39.9157 35.3748 40.2277 34.7108C40.5437 34.0428 40.9877 33.5328 41.5597 33.1808C42.1357 32.8248 42.8137 32.6468 43.5937 32.6468C44.3697 32.6468 45.0417 32.8248 45.6097 33.1808C46.1817 33.5328 46.6217 34.0428 46.9297 34.7108C47.2417 35.3748 47.3977 36.1788 47.3977 37.1228C47.3977 38.0588 47.2437 38.8568 46.9357 39.5168C46.6277 40.1768 46.1877 40.6828 45.6157 41.0348C45.0477 41.3868 44.3737 41.5628 43.5937 41.5628ZM43.5937 40.4648C44.0977 40.4648 44.5277 40.3488 44.8837 40.1168C45.2437 39.8848 45.5177 39.5228 45.7057 39.0308C45.8937 38.5388 45.9877 37.9088 45.9877 37.1408C45.9877 36.3528 45.8917 35.7088 45.6997 35.2088C45.5117 34.7088 45.2377 34.3408 44.8777 34.1048C44.5217 33.8648 44.0937 33.7448 43.5937 33.7448C43.0937 33.7448 42.6617 33.8648 42.2977 34.1048C41.9377 34.3448 41.6597 34.7148 41.4637 35.2148C41.2677 35.7148 41.1697 36.3568 41.1697 37.1408C41.1697 37.9128 41.2677 38.5448 41.4637 39.0368C41.6597 39.5248 41.9377 39.8848 42.2977 40.1168C42.6617 40.3488 43.0937 40.4648 43.5937 40.4648ZM48.9888 41.4428V35.2388H50.2188V36.5108C50.3228 36.2068 50.4668 35.9528 50.6508 35.7488C50.8388 35.5408 51.0568 35.3848 51.3048 35.2808C51.5528 35.1728 51.8148 35.1188 52.0908 35.1188C52.1748 35.1188 52.2548 35.1248 52.3308 35.1368C52.4068 35.1448 52.4668 35.1608 52.5108 35.1848V36.4208C52.4588 36.3968 52.3908 36.3808 52.3068 36.3728C52.2268 36.3648 52.1568 36.3588 52.0968 36.3548C51.8248 36.3348 51.5768 36.3488 51.3528 36.3968C51.1288 36.4448 50.9348 36.5248 50.7708 36.6368C50.6108 36.7488 50.4868 36.8948 50.3988 37.0748C50.3148 37.2548 50.2728 37.4668 50.2728 37.7108V41.4428H48.9888ZM56.1622 41.5628C55.3502 41.5628 54.7082 41.2848 54.2362 40.7288C53.7682 40.1688 53.5342 39.3628 53.5342 38.3108C53.5342 37.6668 53.6282 37.1068 53.8162 36.6308C54.0082 36.1508 54.2902 35.7788 54.6622 35.5148C55.0342 35.2508 55.4982 35.1188 56.0542 35.1188C56.3302 35.1188 56.5782 35.1528 56.7982 35.2208C57.0182 35.2888 57.2102 35.3768 57.3742 35.4848C57.5382 35.5928 57.6762 35.7088 57.7882 35.8328C57.9002 35.9568 57.9842 36.0728 58.0402 36.1808V32.5268H59.3362V41.4428H58.3702L58.2262 40.1708C58.1822 40.3068 58.1142 40.4548 58.0222 40.6148C57.9342 40.7748 57.8102 40.9268 57.6502 41.0708C57.4942 41.2148 57.2942 41.3328 57.0502 41.4248C56.8062 41.5168 56.5102 41.5628 56.1622 41.5628ZM56.4082 40.5968C56.9842 40.5968 57.4002 40.4168 57.6562 40.0568C57.9122 39.6928 58.0402 39.0968 58.0402 38.2688C58.0362 37.8008 57.9782 37.4048 57.8662 37.0808C57.7582 36.7568 57.5862 36.5128 57.3502 36.3488C57.1182 36.1808 56.8122 36.0968 56.4322 36.0968C55.9562 36.0968 55.5662 36.2688 55.2622 36.6128C54.9622 36.9528 54.8122 37.5048 54.8122 38.2688C54.8122 39.0208 54.9482 39.5968 55.2202 39.9968C55.4962 40.3968 55.8922 40.5968 56.4082 40.5968ZM63.9596 41.5628C63.3716 41.5628 62.8536 41.4368 62.4056 41.1848C61.9576 40.9288 61.6076 40.5648 61.3556 40.0928C61.1076 39.6208 60.9836 39.0588 60.9836 38.4068C60.9836 37.7628 61.0976 37.1948 61.3256 36.7028C61.5536 36.2068 61.8836 35.8188 62.3156 35.5388C62.7476 35.2588 63.2676 35.1188 63.8756 35.1188C64.4716 35.1188 64.9756 35.2468 65.3876 35.5028C65.7996 35.7588 66.1116 36.1188 66.3236 36.5828C66.5356 37.0428 66.6416 37.5868 66.6416 38.2148V38.6408H62.2736C62.2696 39.0128 62.3296 39.3468 62.4536 39.6428C62.5776 39.9348 62.7616 40.1668 63.0056 40.3388C63.2536 40.5068 63.5616 40.5908 63.9296 40.5908C64.3016 40.5908 64.6216 40.5068 64.8896 40.3388C65.1616 40.1708 65.3396 39.9208 65.4236 39.5888H66.6116C66.5396 40.0128 66.3696 40.3728 66.1016 40.6688C65.8336 40.9648 65.5116 41.1888 65.1356 41.3408C64.7596 41.4888 64.3676 41.5628 63.9596 41.5628ZM62.2736 37.8068H65.4176C65.4176 37.4828 65.3616 37.1888 65.2496 36.9248C65.1376 36.6568 64.9656 36.4468 64.7336 36.2948C64.5056 36.1388 64.2176 36.0608 63.8696 36.0608C63.5136 36.0608 63.2176 36.1468 62.9816 36.3188C62.7456 36.4908 62.5676 36.7108 62.4476 36.9788C62.3316 37.2468 62.2736 37.5228 62.2736 37.8068ZM68.3036 41.4428V35.2388H69.5336V36.5108C69.6376 36.2068 69.7816 35.9528 69.9656 35.7488C70.1536 35.5408 70.3716 35.3848 70.6196 35.2808C70.8676 35.1728 71.1296 35.1188 71.4056 35.1188C71.4896 35.1188 71.5696 35.1248 71.6456 35.1368C71.7216 35.1448 71.7816 35.1608 71.8256 35.1848V36.4208C71.7736 36.3968 71.7056 36.3808 71.6216 36.3728C71.5416 36.3648 71.4716 36.3588 71.4116 36.3548C71.1396 36.3348 70.8916 36.3488 70.6676 36.3968C70.4436 36.4448 70.2496 36.5248 70.0856 36.6368C69.9256 36.7488 69.8016 36.8948 69.7136 37.0748C69.6296 37.2548 69.5876 37.4668 69.5876 37.7108V41.4428H68.3036ZM79.8308 41.5628C79.0468 41.5628 78.3748 41.3828 77.8148 41.0228C77.2548 40.6588 76.8248 40.1428 76.5248 39.4748C76.2288 38.8028 76.0808 37.9988 76.0808 37.0628C76.0808 36.1308 76.2288 35.3368 76.5248 34.6808C76.8208 34.0208 77.2488 33.5168 77.8088 33.1688C78.3688 32.8208 79.0428 32.6468 79.8308 32.6468C80.4548 32.6468 81.0088 32.7748 81.4928 33.0308C81.9768 33.2868 82.3648 33.6308 82.6568 34.0628C82.9528 34.4948 83.1288 34.9728 83.1848 35.4968H81.8168C81.7568 35.1688 81.6408 34.8728 81.4688 34.6088C81.3008 34.3408 81.0768 34.1308 80.7968 33.9788C80.5168 33.8228 80.1848 33.7448 79.8008 33.7448C79.3088 33.7448 78.8908 33.8608 78.5468 34.0928C78.2028 34.3248 77.9408 34.6868 77.7608 35.1788C77.5848 35.6708 77.4968 36.3048 77.4968 37.0808C77.4968 38.2528 77.6948 39.1108 78.0908 39.6548C78.4868 40.1948 79.0568 40.4648 79.8008 40.4648C80.1848 40.4648 80.5168 40.3828 80.7968 40.2188C81.0768 40.0508 81.3008 39.8288 81.4688 39.5528C81.6408 39.2728 81.7568 38.9688 81.8168 38.6408H83.1848C83.1368 39.0208 83.0368 39.3868 82.8848 39.7388C82.7328 40.0868 82.5208 40.3988 82.2488 40.6748C81.9808 40.9508 81.6468 41.1688 81.2468 41.3288C80.8468 41.4848 80.3748 41.5628 79.8308 41.5628ZM87.4085 41.5628C86.8285 41.5628 86.3225 41.4388 85.8905 41.1908C85.4585 40.9388 85.1225 40.5748 84.8825 40.0988C84.6425 39.6228 84.5225 39.0468 84.5225 38.3708C84.5225 37.7188 84.6365 37.1488 84.8645 36.6608C85.0925 36.1728 85.4205 35.7948 85.8485 35.5268C86.2805 35.2548 86.8025 35.1188 87.4145 35.1188C87.9985 35.1188 88.5045 35.2468 88.9325 35.5028C89.3605 35.7548 89.6925 36.1248 89.9285 36.6128C90.1645 37.0968 90.2825 37.6828 90.2825 38.3708C90.2825 38.9988 90.1725 39.5528 89.9525 40.0328C89.7325 40.5128 89.4085 40.8888 88.9805 41.1608C88.5565 41.4288 88.0325 41.5628 87.4085 41.5628ZM87.4145 40.5728C87.7705 40.5728 88.0665 40.4808 88.3025 40.2968C88.5385 40.1088 88.7165 39.8468 88.8365 39.5108C88.9565 39.1708 89.0165 38.7788 89.0165 38.3348C89.0165 37.9228 88.9625 37.5488 88.8545 37.2128C88.7505 36.8728 88.5805 36.6028 88.3445 36.4028C88.1125 36.2028 87.8025 36.1028 87.4145 36.1028C87.0585 36.1028 86.7585 36.1948 86.5145 36.3788C86.2745 36.5588 86.0945 36.8168 85.9745 37.1528C85.8545 37.4848 85.7945 37.8788 85.7945 38.3348C85.7945 38.7388 85.8485 39.1108 85.9565 39.4508C86.0645 39.7908 86.2365 40.0628 86.4725 40.2668C86.7125 40.4708 87.0265 40.5728 87.4145 40.5728ZM94.1708 41.5628C93.3588 41.5628 92.7168 41.2848 92.2448 40.7288C91.7768 40.1688 91.5428 39.3628 91.5428 38.3108C91.5428 37.6668 91.6368 37.1068 91.8248 36.6308C92.0168 36.1508 92.2988 35.7788 92.6708 35.5148C93.0428 35.2508 93.5068 35.1188 94.0628 35.1188C94.3388 35.1188 94.5868 35.1528 94.8068 35.2208C95.0268 35.2888 95.2188 35.3768 95.3828 35.4848C95.5468 35.5928 95.6848 35.7088 95.7968 35.8328C95.9088 35.9568 95.9928 36.0728 96.0488 36.1808V32.5268H97.3448V41.4428H96.3788L96.2348 40.1708C96.1908 40.3068 96.1228 40.4548 96.0308 40.6148C95.9428 40.7748 95.8188 40.9268 95.6588 41.0708C95.5028 41.2148 95.3028 41.3328 95.0588 41.4248C94.8148 41.5168 94.5188 41.5628 94.1708 41.5628ZM94.4168 40.5968C94.9928 40.5968 95.4088 40.4168 95.6648 40.0568C95.9208 39.6928 96.0488 39.0968 96.0488 38.2688C96.0448 37.8008 95.9868 37.4048 95.8748 37.0808C95.7668 36.7568 95.5948 36.5128 95.3588 36.3488C95.1268 36.1808 94.8208 36.0968 94.4408 36.0968C93.9648 36.0968 93.5748 36.2688 93.2708 36.6128C92.9708 36.9528 92.8208 37.5048 92.8208 38.2688C92.8208 39.0208 92.9568 39.5968 93.2288 39.9968C93.5048 40.3968 93.9008 40.5968 94.4168 40.5968ZM101.968 41.5628C101.38 41.5628 100.862 41.4368 100.414 41.1848C99.9662 40.9288 99.6162 40.5648 99.3642 40.0928C99.1162 39.6208 98.9922 39.0588 98.9922 38.4068C98.9922 37.7628 99.1062 37.1948 99.3342 36.7028C99.5622 36.2068 99.8922 35.8188 100.324 35.5388C100.756 35.2588 101.276 35.1188 101.884 35.1188C102.48 35.1188 102.984 35.2468 103.396 35.5028C103.808 35.7588 104.12 36.1188 104.332 36.5828C104.544 37.0428 104.65 37.5868 104.65 38.2148V38.6408H100.282C100.278 39.0128 100.338 39.3468 100.462 39.6428C100.586 39.9348 100.77 40.1668 101.014 40.3388C101.262 40.5068 101.57 40.5908 101.938 40.5908C102.31 40.5908 102.63 40.5068 102.898 40.3388C103.17 40.1708 103.348 39.9208 103.432 39.5888H104.62C104.548 40.0128 104.378 40.3728 104.11 40.6688C103.842 40.9648 103.52 41.1888 103.144 41.3408C102.768 41.4888 102.376 41.5628 101.968 41.5628ZM100.282 37.8068H103.426C103.426 37.4828 103.37 37.1888 103.258 36.9248C103.146 36.6568 102.974 36.4468 102.742 36.2948C102.514 36.1388 102.226 36.0608 101.878 36.0608C101.522 36.0608 101.226 36.1468 100.99 36.3188C100.754 36.4908 100.576 36.7108 100.456 36.9788C100.34 37.2468 100.282 37.5228 100.282 37.8068ZM106.084 36.9968V35.4608H107.572V36.9968H106.084ZM106.084 41.4068V39.8768H107.572V41.4068H106.084ZM111.929 41.4428L115.061 32.7668H116.477L119.603 41.4428H118.307L117.491 39.1688H114.053L113.231 41.4428H111.929ZM114.371 38.0048H117.155L115.763 34.0148L114.371 38.0048ZM124.271 41.5748C123.727 41.5748 123.223 41.4828 122.759 41.2988C122.295 41.1108 121.895 40.8548 121.559 40.5308C121.227 40.2028 120.981 39.8248 120.821 39.3968L121.895 38.8868C122.039 39.1988 122.217 39.4788 122.429 39.7268C122.641 39.9708 122.891 40.1628 123.179 40.3028C123.467 40.4388 123.797 40.5068 124.169 40.5068C124.757 40.5068 125.231 40.3408 125.591 40.0088C125.951 39.6728 126.131 39.2188 126.131 38.6468C126.131 38.2908 126.047 37.9788 125.879 37.7108C125.711 37.4428 125.485 37.2348 125.201 37.0868C124.917 36.9348 124.599 36.8588 124.247 36.8588C124.027 36.8588 123.821 36.8788 123.629 36.9188C123.437 36.9548 123.245 37.0288 123.053 37.1408C122.865 37.2488 122.665 37.4108 122.453 37.6268C122.421 37.6428 122.397 37.6508 122.381 37.6508C122.369 37.6508 122.343 37.6408 122.303 37.6208L121.277 37.2488L121.673 32.7668H126.959L126.917 33.8528H122.735L122.531 36.4628C122.827 36.2228 123.139 36.0508 123.467 35.9468C123.795 35.8388 124.151 35.7848 124.535 35.7848C125.075 35.7848 125.567 35.8928 126.011 36.1088C126.459 36.3248 126.817 36.6428 127.085 37.0628C127.353 37.4788 127.487 37.9928 127.487 38.6048C127.487 39.2088 127.355 39.7328 127.091 40.1768C126.827 40.6208 126.453 40.9648 125.969 41.2088C125.489 41.4528 124.923 41.5748 124.271 41.5748ZM130.452 41.4428V34.6508H128.808V33.8528C129.32 33.8528 129.722 33.8128 130.014 33.7328C130.31 33.6488 130.522 33.5268 130.65 33.3668C130.782 33.2028 130.856 33.0028 130.872 32.7668H131.766V41.4428H130.452ZM137.787 41.5628C137.003 41.5628 136.331 41.3828 135.771 41.0228C135.211 40.6588 134.781 40.1428 134.481 39.4748C134.185 38.8028 134.037 37.9988 134.037 37.0628C134.037 36.1308 134.185 35.3368 134.481 34.6808C134.777 34.0208 135.205 33.5168 135.765 33.1688C136.325 32.8208 136.999 32.6468 137.787 32.6468C138.411 32.6468 138.965 32.7748 139.449 33.0308C139.933 33.2868 140.321 33.6308 140.613 34.0628C140.909 34.4948 141.085 34.9728 141.141 35.4968H139.773C139.713 35.1688 139.597 34.8728 139.425 34.6088C139.257 34.3408 139.033 34.1308 138.753 33.9788C138.473 33.8228 138.141 33.7448 137.757 33.7448C137.265 33.7448 136.847 33.8608 136.503 34.0928C136.159 34.3248 135.897 34.6868 135.717 35.1788C135.541 35.6708 135.453 36.3048 135.453 37.0808C135.453 38.2528 135.651 39.1108 136.047 39.6548C136.443 40.1948 137.013 40.4648 137.757 40.4648C138.141 40.4648 138.473 40.3828 138.753 40.2188C139.033 40.0508 139.257 39.8288 139.425 39.5528C139.597 39.2728 139.713 38.9688 139.773 38.6408H141.141C141.093 39.0208 140.993 39.3868 140.841 39.7388C140.689 40.0868 140.477 40.3988 140.205 40.6748C139.937 40.9508 139.603 41.1688 139.203 41.3288C138.803 41.4848 138.331 41.5628 137.787 41.5628Z" fill="#2DA0ED"/>
</g>
<defs>
<clipPath id="clip0_399_201">
<rect width="142" height="40.8857" fill="white" transform="translate(0.5 0.557175)"/>
</clipPath>
</defs>
</svg>
