<svg width="361" height="92" viewBox="0 0 361 92" fill="none" xmlns="http://www.w3.org/2000/svg">
<rect width="361" height="92" rx="19" fill="white"/>
<path d="M262.75 15H333C339.627 15 345 20.3726 345 27V62C345 68.6274 339.627 74 333 74H218M98.25 15H28C21.3726 15 16 20.3726 16 27V62C16 68.6274 21.3726 74 28 74H141.5" stroke="#2DA0ED" stroke-width="2"/>
<path d="M122.127 8.507C123.183 6.61346 123.711 5.66669 124.5 5.66669C125.289 5.66669 125.817 6.61345 126.872 8.507L127.145 8.99688C127.445 9.53496 127.595 9.80401 127.829 9.98153C128.063 10.159 128.354 10.2249 128.937 10.3567L129.467 10.4767C131.517 10.9405 132.542 11.1724 132.785 11.9565C133.029 12.7405 132.331 13.5576 130.933 15.1916L130.572 15.6144C130.175 16.0787 129.976 16.3109 129.887 16.5981C129.797 16.8854 129.827 17.1951 129.887 17.8147L129.942 18.3787C130.153 20.5589 130.259 21.6489 129.621 22.1335C128.982 22.6181 128.023 22.1763 126.103 21.2927L125.607 21.064C125.062 20.8129 124.789 20.6874 124.5 20.6874C124.211 20.6874 123.938 20.8129 123.393 21.064L122.896 21.2927C120.977 22.1763 120.017 22.6181 119.379 22.1335C118.741 21.6489 118.846 20.5589 119.058 18.3787L119.112 17.8147C119.172 17.1951 119.202 16.8854 119.113 16.5981C119.024 16.3109 118.825 16.0787 118.428 15.6144L118.067 15.1916C116.669 13.5576 115.971 12.7405 116.214 11.9565C116.458 11.1724 117.483 10.9405 119.533 10.4767L120.063 10.3567C120.646 10.2249 120.937 10.159 121.171 9.98153C121.404 9.80401 121.554 9.53497 121.854 8.99688L122.127 8.507Z" fill="#F7A700"/>
<path d="M150.127 8.507C151.183 6.61346 151.711 5.66669 152.5 5.66669C153.289 5.66669 153.817 6.61345 154.872 8.507L155.145 8.99688C155.445 9.53496 155.595 9.80401 155.829 9.98153C156.063 10.159 156.354 10.2249 156.937 10.3567L157.467 10.4767C159.517 10.9405 160.542 11.1724 160.785 11.9565C161.029 12.7405 160.331 13.5576 158.933 15.1916L158.572 15.6144C158.175 16.0787 157.976 16.3109 157.887 16.5981C157.797 16.8854 157.827 17.1951 157.887 17.8147L157.942 18.3787C158.153 20.5589 158.259 21.6489 157.621 22.1335C156.982 22.6181 156.023 22.1763 154.103 21.2927L153.607 21.064C153.062 20.8129 152.789 20.6874 152.5 20.6874C152.211 20.6874 151.938 20.8129 151.393 21.064L150.896 21.2927C148.977 22.1763 148.017 22.6181 147.379 22.1335C146.741 21.6489 146.846 20.5589 147.058 18.3787L147.112 17.8147C147.172 17.1951 147.202 16.8854 147.113 16.5981C147.024 16.3109 146.825 16.0787 146.428 15.6144L146.067 15.1916C144.669 13.5576 143.971 12.7405 144.214 11.9565C144.458 11.1724 145.483 10.9405 147.533 10.4767L148.063 10.3567C148.646 10.2249 148.937 10.159 149.171 9.98153C149.404 9.80401 149.554 9.53497 149.854 8.99688L150.127 8.507Z" fill="#F7A700"/>
<path d="M178.127 8.507C179.183 6.61346 179.711 5.66669 180.5 5.66669C181.289 5.66669 181.817 6.61345 182.872 8.507L183.145 8.99688C183.445 9.53496 183.595 9.80401 183.829 9.98153C184.063 10.159 184.354 10.2249 184.937 10.3567L185.467 10.4767C187.517 10.9405 188.542 11.1724 188.785 11.9565C189.029 12.7405 188.331 13.5576 186.933 15.1916L186.572 15.6144C186.175 16.0787 185.976 16.3109 185.887 16.5981C185.797 16.8854 185.827 17.1951 185.887 17.8147L185.942 18.3787C186.153 20.5589 186.259 21.6489 185.621 22.1335C184.982 22.6181 184.023 22.1763 182.103 21.2927L181.607 21.064C181.062 20.8129 180.789 20.6874 180.5 20.6874C180.211 20.6874 179.938 20.8129 179.393 21.064L178.896 21.2927C176.977 22.1763 176.017 22.6181 175.379 22.1335C174.741 21.6489 174.846 20.5589 175.058 18.3787L175.112 17.8147C175.172 17.1951 175.202 16.8854 175.113 16.5981C175.024 16.3109 174.825 16.0787 174.428 15.6144L174.067 15.1916C172.669 13.5576 171.971 12.7405 172.214 11.9565C172.458 11.1724 173.483 10.9405 175.533 10.4767L176.063 10.3567C176.646 10.2249 176.937 10.159 177.171 9.98153C177.404 9.80401 177.554 9.53497 177.854 8.99688L178.127 8.507Z" fill="#F7A700"/>
<path d="M206.127 8.507C207.183 6.61346 207.711 5.66669 208.5 5.66669C209.289 5.66669 209.817 6.61345 210.872 8.507L211.145 8.99688C211.445 9.53496 211.595 9.80401 211.829 9.98153C212.063 10.159 212.354 10.2249 212.937 10.3567L213.467 10.4767C215.517 10.9405 216.542 11.1724 216.785 11.9565C217.029 12.7405 216.331 13.5576 214.933 15.1916L214.572 15.6144C214.175 16.0787 213.976 16.3109 213.887 16.5981C213.797 16.8854 213.827 17.1951 213.887 17.8147L213.942 18.3787C214.153 20.5589 214.259 21.6489 213.621 22.1335C212.982 22.6181 212.023 22.1763 210.103 21.2927L209.607 21.064C209.062 20.8129 208.789 20.6874 208.5 20.6874C208.211 20.6874 207.938 20.8129 207.393 21.064L206.896 21.2927C204.977 22.1763 204.017 22.6181 203.379 22.1335C202.741 21.6489 202.846 20.5589 203.058 18.3787L203.112 17.8147C203.172 17.1951 203.202 16.8854 203.113 16.5981C203.024 16.3109 202.825 16.0787 202.428 15.6144L202.067 15.1916C200.669 13.5576 199.971 12.7405 200.214 11.9565C200.458 11.1724 201.483 10.9405 203.533 10.4767L204.063 10.3567C204.646 10.2249 204.937 10.159 205.171 9.98153C205.404 9.80401 205.554 9.53497 205.854 8.99688L206.127 8.507Z" fill="#F7A700"/>
<path d="M234.127 8.507C235.183 6.61346 235.711 5.66669 236.5 5.66669C237.289 5.66669 237.817 6.61345 238.872 8.507L239.145 8.99688C239.445 9.53496 239.595 9.80401 239.829 9.98153C240.063 10.159 240.354 10.2249 240.937 10.3567L241.467 10.4767C243.517 10.9405 244.542 11.1724 244.785 11.9565C245.029 12.7405 244.331 13.5576 242.933 15.1916L242.572 15.6144C242.175 16.0787 241.976 16.3109 241.887 16.5981C241.797 16.8854 241.827 17.1951 241.887 17.8147L241.942 18.3787C242.153 20.5589 242.259 21.6489 241.621 22.1335C240.982 22.6181 240.023 22.1763 238.103 21.2927L237.607 21.064C237.062 20.8129 236.789 20.6874 236.5 20.6874C236.211 20.6874 235.938 20.8129 235.393 21.064L234.896 21.2927C232.977 22.1763 232.017 22.6181 231.379 22.1335C230.741 21.6489 230.846 20.5589 231.058 18.3787L231.112 17.8147C231.172 17.1951 231.202 16.8854 231.113 16.5981C231.024 16.3109 230.825 16.0787 230.428 15.6144L230.067 15.1916C228.669 13.5576 227.971 12.7405 228.214 11.9565C228.458 11.1724 229.483 10.9405 231.533 10.4767L232.063 10.3567C232.646 10.2249 232.937 10.159 233.171 9.98153C233.404 9.80401 233.554 9.53497 233.854 8.99688L234.127 8.507Z" fill="#F7A700"/>
<path d="M72.3759 48.16C71.3145 48.16 70.4025 47.9173 69.6399 47.432C68.8825 46.9413 68.2985 46.248 67.8879 45.352C67.4825 44.4507 67.2799 43.3813 67.2799 42.144C67.2799 40.912 67.4825 39.8587 67.8879 38.984C68.2932 38.1093 68.8745 37.44 69.6319 36.976C70.3945 36.5067 71.3092 36.272 72.3759 36.272C73.2239 36.272 73.9759 36.4453 74.6319 36.792C75.2879 37.1333 75.8159 37.5973 76.2159 38.184C76.6212 38.7707 76.8612 39.424 76.9359 40.144H74.8799C74.7999 39.7173 74.6505 39.336 74.4319 39C74.2185 38.664 73.9359 38.3973 73.5839 38.2C73.2319 38.0027 72.8105 37.904 72.3199 37.904C71.7065 37.904 71.1839 38.0507 70.7519 38.344C70.3252 38.632 69.9972 39.0907 69.7679 39.72C69.5439 40.3493 69.4319 41.1653 69.4319 42.168C69.4319 43.688 69.6825 44.7947 70.1839 45.488C70.6852 46.1813 71.3972 46.528 72.3199 46.528C72.8105 46.528 73.2319 46.4213 73.5839 46.208C73.9359 45.9893 74.2185 45.7013 74.4319 45.344C74.6505 44.9813 74.7999 44.5867 74.8799 44.16H76.9359C76.8719 44.6827 76.7385 45.184 76.5359 45.664C76.3385 46.144 76.0585 46.5733 75.6959 46.952C75.3332 47.3253 74.8772 47.6213 74.3279 47.84C73.7839 48.0533 73.1332 48.16 72.3759 48.16ZM81.4255 48.12C80.8922 48.12 80.4655 48.0533 80.1455 47.92C79.8255 47.7867 79.5855 47.608 79.4255 47.384C79.2655 47.16 79.1615 46.9093 79.1135 46.632C79.0655 46.3493 79.0415 46.0613 79.0415 45.768V36.112H80.9455V45.544C80.9455 45.9013 81.0175 46.1787 81.1615 46.376C81.3108 46.5733 81.5508 46.688 81.8815 46.72L82.2975 46.736V47.96C82.1535 48.0027 82.0068 48.04 81.8575 48.072C81.7082 48.104 81.5642 48.12 81.4255 48.12ZM84.2735 48V39.728H86.1375V48H84.2735ZM84.2415 38.28V36.44H86.1695V38.28H84.2415ZM92.0385 48.16C91.2812 48.16 90.6065 47.9947 90.0145 47.664C89.4278 47.328 88.9665 46.8427 88.6305 46.208C88.2945 45.568 88.1265 44.7973 88.1265 43.896C88.1265 43.0373 88.2838 42.2853 88.5985 41.64C88.9185 40.9893 89.3692 40.4827 89.9505 40.12C90.5372 39.752 91.2332 39.568 92.0385 39.568C92.6838 39.568 93.2518 39.696 93.7425 39.952C94.2332 40.208 94.6252 40.5627 94.9185 41.016C95.2172 41.4693 95.3958 41.984 95.4545 42.56H93.7985C93.7558 42.3093 93.6625 42.072 93.5185 41.848C93.3745 41.6187 93.1798 41.4347 92.9345 41.296C92.6945 41.152 92.4012 41.08 92.0545 41.08C91.4305 41.08 90.9265 41.3093 90.5425 41.768C90.1585 42.2267 89.9665 42.9307 89.9665 43.88C89.9665 44.7547 90.1478 45.4507 90.5105 45.968C90.8785 46.4853 91.4038 46.744 92.0865 46.744C92.4278 46.744 92.7212 46.6693 92.9665 46.52C93.2118 46.3653 93.4038 46.176 93.5425 45.952C93.6865 45.7227 93.7772 45.4933 93.8145 45.264H95.4305C95.3825 45.824 95.2092 46.3227 94.9105 46.76C94.6118 47.1973 94.2172 47.5413 93.7265 47.792C93.2358 48.0373 92.6732 48.16 92.0385 48.16ZM97.4228 48V36.112H99.3588V43.48L102.791 39.728H104.927L101.935 42.96L105.079 48H103.103L100.703 44.168L99.3588 45.576V48H97.4228ZM113.53 48V38.184H109.93V36.432H118.954V38.184H115.482V48H113.53ZM122.901 48.16C122.112 48.16 121.424 47.992 120.837 47.656C120.25 47.3147 119.794 46.8267 119.469 46.192C119.149 45.5573 118.989 44.7947 118.989 43.904C118.989 43.04 119.146 42.2827 119.461 41.632C119.776 40.9813 120.224 40.4747 120.805 40.112C121.392 39.7493 122.093 39.568 122.909 39.568C123.698 39.568 124.384 39.7413 124.965 40.088C125.546 40.4347 125.994 40.9307 126.309 41.576C126.629 42.2213 126.789 42.9973 126.789 43.904C126.789 44.7413 126.637 45.48 126.333 46.12C126.034 46.7547 125.594 47.2533 125.013 47.616C124.437 47.9787 123.733 48.16 122.901 48.16ZM122.909 46.68C123.357 46.68 123.725 46.5573 124.013 46.312C124.306 46.0667 124.525 45.7307 124.669 45.304C124.813 44.8773 124.885 44.392 124.885 43.848C124.885 43.3413 124.821 42.8747 124.693 42.448C124.565 42.0213 124.354 41.68 124.061 41.424C123.773 41.1627 123.389 41.032 122.909 41.032C122.456 41.032 122.08 41.152 121.781 41.392C121.488 41.6267 121.269 41.9573 121.125 42.384C120.981 42.8053 120.909 43.2933 120.909 43.848C120.909 44.3493 120.973 44.816 121.101 45.248C121.229 45.6747 121.44 46.0213 121.733 46.288C122.026 46.5493 122.418 46.68 122.909 46.68ZM132.922 48V36.432H137.618C138.503 36.432 139.231 36.5707 139.802 36.848C140.378 37.12 140.805 37.5067 141.082 38.008C141.359 38.504 141.498 39.0853 141.498 39.752C141.498 40.3707 141.397 40.8907 141.194 41.312C140.991 41.728 140.727 42.0693 140.402 42.336C140.082 42.5973 139.738 42.8107 139.37 42.976L141.578 48H139.546L137.554 43.304H134.866V48H132.922ZM134.866 41.76H137.178C137.914 41.76 138.487 41.5893 138.898 41.248C139.314 40.9067 139.522 40.432 139.522 39.824C139.522 39.2267 139.33 38.7653 138.946 38.44C138.562 38.1147 138.055 37.952 137.426 37.952H134.866V41.76ZM147.185 48.16C146.39 48.16 145.689 47.992 145.081 47.656C144.478 47.3147 144.006 46.8293 143.665 46.2C143.329 45.5707 143.161 44.8213 143.161 43.952C143.161 43.104 143.313 42.352 143.617 41.696C143.926 41.0347 144.372 40.5147 144.953 40.136C145.54 39.7573 146.246 39.568 147.073 39.568C147.889 39.568 148.574 39.7413 149.129 40.088C149.684 40.4347 150.105 40.92 150.393 41.544C150.681 42.1627 150.825 42.888 150.825 43.72V44.312H145.105C145.1 44.7813 145.174 45.1973 145.329 45.56C145.484 45.9227 145.713 46.208 146.017 46.416C146.321 46.6187 146.697 46.72 147.145 46.72C147.604 46.72 148.001 46.6187 148.337 46.416C148.678 46.208 148.905 45.8933 149.017 45.472H150.793C150.697 46.048 150.468 46.536 150.105 46.936C149.748 47.336 149.31 47.64 148.793 47.848C148.281 48.056 147.745 48.16 147.185 48.16ZM145.097 43.104H148.985C148.985 42.704 148.913 42.344 148.769 42.024C148.63 41.6987 148.42 41.4427 148.137 41.256C147.854 41.064 147.497 40.968 147.065 40.968C146.638 40.968 146.278 41.072 145.985 41.28C145.692 41.488 145.47 41.7573 145.321 42.088C145.172 42.4133 145.097 42.752 145.097 43.104ZM154.922 48L151.866 39.728H153.65L155.634 45.52H155.738L157.714 39.728H159.506L156.458 48H154.922ZM161.117 48V39.728H162.981V48H161.117ZM161.085 38.28V36.44H163.013V38.28H161.085ZM169.066 48.16C168.272 48.16 167.57 47.992 166.962 47.656C166.36 47.3147 165.888 46.8293 165.546 46.2C165.21 45.5707 165.042 44.8213 165.042 43.952C165.042 43.104 165.194 42.352 165.498 41.696C165.808 41.0347 166.253 40.5147 166.834 40.136C167.421 39.7573 168.128 39.568 168.954 39.568C169.77 39.568 170.456 39.7413 171.01 40.088C171.565 40.4347 171.986 40.92 172.274 41.544C172.562 42.1627 172.706 42.888 172.706 43.72V44.312H166.986C166.981 44.7813 167.056 45.1973 167.21 45.56C167.365 45.9227 167.594 46.208 167.898 46.416C168.202 46.6187 168.578 46.72 169.026 46.72C169.485 46.72 169.882 46.6187 170.218 46.416C170.56 46.208 170.786 45.8933 170.898 45.472H172.674C172.578 46.048 172.349 46.536 171.986 46.936C171.629 47.336 171.192 47.64 170.674 47.848C170.162 48.056 169.626 48.16 169.066 48.16ZM166.978 43.104H170.866C170.866 42.704 170.794 42.344 170.65 42.024C170.512 41.6987 170.301 41.4427 170.018 41.256C169.736 41.064 169.378 40.968 168.946 40.968C168.52 40.968 168.16 41.072 167.866 41.28C167.573 41.488 167.352 41.7573 167.202 42.088C167.053 42.4133 166.978 42.752 166.978 43.104ZM176.435 48L173.811 39.728H175.563L177.283 45.416H177.379L179.051 39.728H180.467L182.187 45.408H182.283L183.947 39.728H185.731L183.107 48H181.427L179.731 42.488L178.075 48H176.435ZM195.934 48.16C194.867 48.16 194.006 47.984 193.35 47.632C192.699 47.2747 192.227 46.7627 191.934 46.096C191.64 45.424 191.494 44.6133 191.494 43.664V36.432H193.486V43.864C193.486 44.76 193.704 45.4213 194.142 45.848C194.584 46.2747 195.182 46.488 195.934 46.488C196.44 46.488 196.88 46.3947 197.254 46.208C197.627 46.0213 197.915 45.736 198.118 45.352C198.32 44.9627 198.422 44.4667 198.422 43.864V36.432H200.39V43.776C200.39 44.6933 200.24 45.48 199.942 46.136C199.643 46.7867 199.166 47.288 198.51 47.64C197.859 47.9867 197 48.16 195.934 48.16ZM205.988 48.16C205.412 48.16 204.865 48.0693 204.348 47.888C203.836 47.7013 203.404 47.4107 203.052 47.016C202.705 46.6213 202.486 46.112 202.396 45.488H204.108C204.182 45.792 204.313 46.04 204.5 46.232C204.692 46.424 204.916 46.5653 205.172 46.656C205.433 46.7413 205.702 46.784 205.98 46.784C206.476 46.784 206.876 46.6987 207.18 46.528C207.484 46.3573 207.636 46.0933 207.636 45.736C207.636 45.4747 207.55 45.2667 207.38 45.112C207.214 44.9573 206.942 44.84 206.564 44.76L204.996 44.4C204.292 44.2453 203.729 43.9893 203.308 43.632C202.886 43.2747 202.673 42.7707 202.668 42.12C202.662 41.6293 202.785 41.192 203.036 40.808C203.286 40.424 203.66 40.1227 204.156 39.904C204.652 39.68 205.262 39.568 205.988 39.568C206.953 39.568 207.726 39.784 208.308 40.216C208.894 40.6427 209.196 41.2533 209.212 42.048H207.556C207.497 41.6907 207.329 41.4133 207.052 41.216C206.774 41.0133 206.414 40.912 205.972 40.912C205.513 40.912 205.137 41 204.844 41.176C204.55 41.352 204.404 41.6213 204.404 41.984C204.404 42.2347 204.513 42.432 204.732 42.576C204.956 42.72 205.294 42.8427 205.748 42.944L207.236 43.304C207.662 43.4107 208.012 43.5547 208.284 43.736C208.556 43.9173 208.766 44.1173 208.916 44.336C209.07 44.5493 209.177 44.7707 209.236 45C209.3 45.224 209.332 45.432 209.332 45.624C209.332 46.1573 209.193 46.6133 208.916 46.992C208.644 47.3653 208.257 47.6533 207.756 47.856C207.26 48.0587 206.67 48.16 205.988 48.16ZM220.061 48.16C218.994 48.16 218.072 47.9253 217.293 47.456C216.52 46.9867 215.92 46.3093 215.493 45.424C215.072 44.5387 214.861 43.4773 214.861 42.24C214.861 40.992 215.074 39.9227 215.501 39.032C215.928 38.1413 216.53 37.4587 217.309 36.984C218.093 36.5093 219.01 36.272 220.061 36.272C221.112 36.272 222.021 36.5093 222.789 36.984C223.562 37.4587 224.16 38.1413 224.581 39.032C225.002 39.9227 225.213 40.992 225.213 42.24C225.213 43.4773 225.005 44.5387 224.589 45.424C224.173 46.304 223.578 46.9813 222.805 47.456C222.032 47.9253 221.117 48.16 220.061 48.16ZM220.061 46.528C220.69 46.528 221.232 46.3813 221.685 46.088C222.138 45.7893 222.485 45.328 222.725 44.704C222.97 44.0747 223.093 43.2613 223.093 42.264C223.093 41.2507 222.97 40.424 222.725 39.784C222.48 39.1387 222.13 38.664 221.677 38.36C221.224 38.056 220.685 37.904 220.061 37.904C219.432 37.904 218.888 38.0587 218.429 38.368C217.976 38.672 217.624 39.1467 217.373 39.792C217.122 40.432 216.997 41.256 216.997 42.264C216.997 43.2613 217.122 44.0747 217.373 44.704C217.624 45.328 217.976 45.7893 218.429 46.088C218.888 46.3813 219.432 46.528 220.061 46.528ZM227.154 48V39.728H229.058V40.912C229.186 40.6987 229.359 40.4933 229.578 40.296C229.802 40.0987 230.077 39.9387 230.402 39.816C230.727 39.6933 231.109 39.632 231.546 39.632C232.058 39.632 232.533 39.7333 232.97 39.936C233.413 40.1387 233.767 40.456 234.034 40.888C234.306 41.32 234.442 41.8773 234.442 42.56V48H232.49V42.792C232.49 42.248 232.341 41.8453 232.042 41.584C231.743 41.3173 231.367 41.184 230.914 41.184C230.605 41.184 230.311 41.2373 230.034 41.344C229.757 41.4453 229.53 41.6027 229.354 41.816C229.183 42.024 229.098 42.2853 229.098 42.6V48H227.154ZM245.439 48.16C244.405 48.16 243.506 47.9227 242.743 47.448C241.981 46.9733 241.394 46.296 240.983 45.416C240.573 44.5307 240.367 43.4747 240.367 42.248C240.367 41.0107 240.581 39.944 241.007 39.048C241.434 38.152 242.034 37.4667 242.807 36.992C243.586 36.512 244.498 36.272 245.543 36.272C246.183 36.272 246.773 36.3787 247.311 36.592C247.855 36.8053 248.33 37.0933 248.735 37.456C249.146 37.8187 249.469 38.232 249.703 38.696C249.938 39.16 250.069 39.6427 250.095 40.144H248.039C247.965 39.7493 247.813 39.3867 247.583 39.056C247.359 38.72 247.069 38.4507 246.711 38.248C246.359 38.0453 245.957 37.944 245.503 37.944C244.922 37.944 244.402 38.0907 243.943 38.384C243.49 38.6773 243.133 39.1387 242.871 39.768C242.615 40.392 242.487 41.2027 242.487 42.2C242.487 42.9893 242.567 43.656 242.727 44.2C242.893 44.7387 243.117 45.1733 243.399 45.504C243.687 45.8293 244.018 46.0667 244.391 46.216C244.765 46.36 245.159 46.432 245.575 46.432C245.981 46.432 246.338 46.3627 246.647 46.224C246.957 46.0853 247.218 45.904 247.431 45.68C247.65 45.456 247.818 45.216 247.935 44.96C248.058 44.6987 248.13 44.4453 248.151 44.2L248.223 43.352H245.639V41.976L250.255 41.992V48H248.879V46.376C248.682 46.6693 248.431 46.952 248.127 47.224C247.829 47.496 247.461 47.72 247.023 47.896C246.591 48.072 246.063 48.16 245.439 48.16ZM256.289 48.16C255.499 48.16 254.811 47.992 254.225 47.656C253.638 47.3147 253.182 46.8267 252.857 46.192C252.537 45.5573 252.377 44.7947 252.377 43.904C252.377 43.04 252.534 42.2827 252.849 41.632C253.163 40.9813 253.611 40.4747 254.193 40.112C254.779 39.7493 255.481 39.568 256.297 39.568C257.086 39.568 257.771 39.7413 258.353 40.088C258.934 40.4347 259.382 40.9307 259.697 41.576C260.017 42.2213 260.177 42.9973 260.177 43.904C260.177 44.7413 260.025 45.48 259.721 46.12C259.422 46.7547 258.982 47.2533 258.401 47.616C257.825 47.9787 257.121 48.16 256.289 48.16ZM256.297 46.68C256.745 46.68 257.113 46.5573 257.401 46.312C257.694 46.0667 257.913 45.7307 258.057 45.304C258.201 44.8773 258.273 44.392 258.273 43.848C258.273 43.3413 258.209 42.8747 258.081 42.448C257.953 42.0213 257.742 41.68 257.449 41.424C257.161 41.1627 256.777 41.032 256.297 41.032C255.843 41.032 255.467 41.152 255.169 41.392C254.875 41.6267 254.657 41.9573 254.513 42.384C254.369 42.8053 254.297 43.2933 254.297 43.848C254.297 44.3493 254.361 44.816 254.489 45.248C254.617 45.6747 254.827 46.0213 255.121 46.288C255.414 46.5493 255.806 46.68 256.297 46.68ZM265.629 48.16C264.84 48.16 264.152 47.992 263.565 47.656C262.978 47.3147 262.522 46.8267 262.197 46.192C261.877 45.5573 261.717 44.7947 261.717 43.904C261.717 43.04 261.874 42.2827 262.189 41.632C262.504 40.9813 262.952 40.4747 263.533 40.112C264.12 39.7493 264.821 39.568 265.637 39.568C266.426 39.568 267.112 39.7413 267.693 40.088C268.274 40.4347 268.722 40.9307 269.037 41.576C269.357 42.2213 269.517 42.9973 269.517 43.904C269.517 44.7413 269.365 45.48 269.061 46.12C268.762 46.7547 268.322 47.2533 267.741 47.616C267.165 47.9787 266.461 48.16 265.629 48.16ZM265.637 46.68C266.085 46.68 266.453 46.5573 266.741 46.312C267.034 46.0667 267.253 45.7307 267.397 45.304C267.541 44.8773 267.613 44.392 267.613 43.848C267.613 43.3413 267.549 42.8747 267.421 42.448C267.293 42.0213 267.082 41.68 266.789 41.424C266.501 41.1627 266.117 41.032 265.637 41.032C265.184 41.032 264.808 41.152 264.509 41.392C264.216 41.6267 263.997 41.9573 263.853 42.384C263.709 42.8053 263.637 43.2933 263.637 43.848C263.637 44.3493 263.701 44.816 263.829 45.248C263.957 45.6747 264.168 46.0213 264.461 46.288C264.754 46.5493 265.146 46.68 265.637 46.68ZM275.1 50.736C273.708 50.736 272.638 50.5493 271.892 50.176C271.145 49.8027 270.772 49.2907 270.772 48.64C270.772 48.3467 270.844 48.1013 270.988 47.904C271.132 47.7067 271.302 47.544 271.5 47.416C271.697 47.288 271.878 47.1893 272.044 47.12C272.209 47.0507 272.316 47 272.364 46.968C272.273 46.9147 272.153 46.8453 272.004 46.76C271.854 46.6747 271.718 46.5573 271.596 46.408C271.478 46.2587 271.42 46.064 271.42 45.824C271.42 45.5467 271.55 45.2907 271.812 45.056C272.078 44.8213 272.476 44.6533 273.004 44.552C272.486 44.3013 272.089 43.9627 271.812 43.536C271.534 43.1093 271.396 42.6667 271.396 42.208C271.396 41.664 271.553 41.1973 271.868 40.808C272.188 40.4187 272.63 40.12 273.196 39.912C273.761 39.704 274.42 39.6 275.172 39.6C275.721 39.6 276.177 39.6613 276.54 39.784C276.908 39.9067 277.249 40.072 277.564 40.28C277.67 40.2373 277.82 40.1787 278.012 40.104C278.204 40.024 278.414 39.9387 278.644 39.848C278.873 39.752 279.094 39.6613 279.308 39.576C279.521 39.4853 279.7 39.4107 279.844 39.352L279.836 40.96L278.404 41.216C278.473 41.3707 278.526 41.5387 278.564 41.72C278.606 41.9013 278.628 42.0613 278.628 42.2C278.628 42.68 278.492 43.1253 278.22 43.536C277.953 43.9413 277.55 44.2667 277.012 44.512C276.478 44.7573 275.812 44.88 275.012 44.88C274.932 44.88 274.822 44.8773 274.684 44.872C274.545 44.8667 274.433 44.8613 274.348 44.856C273.916 44.872 273.62 44.9227 273.46 45.008C273.3 45.0933 273.22 45.1867 273.22 45.288C273.22 45.432 273.34 45.528 273.58 45.576C273.82 45.624 274.204 45.6667 274.732 45.704C274.918 45.7147 275.164 45.728 275.468 45.744C275.772 45.76 276.11 45.7813 276.484 45.808C277.428 45.8667 278.142 46.104 278.628 46.52C279.113 46.9307 279.356 47.464 279.356 48.12C279.356 48.8827 279.004 49.5093 278.3 50C277.596 50.4907 276.529 50.736 275.1 50.736ZM275.428 49.592C276.126 49.592 276.644 49.496 276.98 49.304C277.316 49.112 277.484 48.8293 277.484 48.456C277.484 48.168 277.369 47.9333 277.14 47.752C276.91 47.5707 276.569 47.464 276.116 47.432L274.028 47.304C273.798 47.288 273.58 47.3307 273.372 47.432C273.169 47.528 273.004 47.664 272.876 47.84C272.748 48.0107 272.684 48.2 272.684 48.408C272.684 48.7973 272.905 49.0907 273.348 49.288C273.796 49.4907 274.489 49.592 275.428 49.592ZM275.076 43.736C275.582 43.736 275.993 43.608 276.308 43.352C276.622 43.0907 276.78 42.7227 276.78 42.248C276.78 41.7573 276.622 41.376 276.308 41.104C275.993 40.8267 275.582 40.688 275.076 40.688C274.558 40.688 274.14 40.8267 273.82 41.104C273.505 41.3813 273.348 41.7627 273.348 42.248C273.348 42.7067 273.5 43.0693 273.804 43.336C274.108 43.6027 274.532 43.736 275.076 43.736ZM284.019 48.12C283.486 48.12 283.059 48.0533 282.739 47.92C282.419 47.7867 282.179 47.608 282.019 47.384C281.859 47.16 281.755 46.9093 281.707 46.632C281.659 46.3493 281.635 46.0613 281.635 45.768V36.112H283.539V45.544C283.539 45.9013 283.611 46.1787 283.755 46.376C283.905 46.5733 284.145 46.688 284.475 46.72L284.891 46.736V47.96C284.747 48.0027 284.601 48.04 284.451 48.072C284.302 48.104 284.158 48.12 284.019 48.12ZM290.132 48.16C289.337 48.16 288.636 47.992 288.028 47.656C287.425 47.3147 286.953 46.8293 286.612 46.2C286.276 45.5707 286.108 44.8213 286.108 43.952C286.108 43.104 286.26 42.352 286.564 41.696C286.873 41.0347 287.319 40.5147 287.9 40.136C288.487 39.7573 289.193 39.568 290.02 39.568C290.836 39.568 291.521 39.7413 292.076 40.088C292.631 40.4347 293.052 40.92 293.34 41.544C293.628 42.1627 293.772 42.888 293.772 43.72V44.312H288.052C288.047 44.7813 288.121 45.1973 288.276 45.56C288.431 45.9227 288.66 46.208 288.964 46.416C289.268 46.6187 289.644 46.72 290.092 46.72C290.551 46.72 290.948 46.6187 291.284 46.416C291.625 46.208 291.852 45.8933 291.964 45.472H293.74C293.644 46.048 293.415 46.536 293.052 46.936C292.695 47.336 292.257 47.64 291.74 47.848C291.228 48.056 290.692 48.16 290.132 48.16ZM288.044 43.104H291.932C291.932 42.704 291.86 42.344 291.716 42.024C291.577 41.6987 291.367 41.4427 291.084 41.256C290.801 41.064 290.444 40.968 290.012 40.968C289.585 40.968 289.225 41.072 288.932 41.28C288.639 41.488 288.417 41.7573 288.268 42.088C288.119 42.4133 288.044 42.752 288.044 43.104Z" fill="#414141"/>
<g clip-path="url(#clip0_595_2226)">
<path d="M172.705 76.9207L171.731 80.5592L168.168 80.6346C167.104 78.66 166.5 76.4008 166.5 74C166.5 71.6785 167.065 69.4892 168.065 67.5615H168.066L171.238 68.143L172.627 71.2954C172.336 72.1431 172.178 73.0531 172.178 74C172.178 75.0277 172.364 76.0123 172.705 76.9207Z" fill="#FBBB00"/>
<path d="M194.255 71.3846C194.416 72.2315 194.5 73.1062 194.5 74C194.5 75.0023 194.394 75.98 194.194 76.9231C193.512 80.1323 191.731 82.9346 189.264 84.9177L189.264 84.917L185.269 84.7131L184.704 81.1839C186.341 80.2239 187.62 78.7216 188.294 76.9231H180.808V71.3846H194.255Z" fill="#518EF8"/>
<path d="M189.264 84.9169L189.265 84.9177C186.865 86.8461 183.818 88 180.5 88C175.168 88 170.533 85.02 168.168 80.6346L172.705 76.9208C173.888 80.0761 176.932 82.3223 180.5 82.3223C182.034 82.3223 183.471 81.9077 184.704 81.1838L189.264 84.9169Z" fill="#28B446"/>
<path d="M189.436 63.2231L184.901 66.9361C183.625 66.1385 182.116 65.6777 180.5 65.6777C176.851 65.6777 173.75 68.0269 172.627 71.2954L168.066 67.5615H168.065C170.395 63.0692 175.089 60 180.5 60C183.897 60 187.012 61.21 189.436 63.2231Z" fill="#F14336"/>
</g>
<defs>
<clipPath id="clip0_595_2226">
<rect width="28" height="28" fill="white" transform="translate(166.5 60)"/>
</clipPath>
</defs>
</svg>
