<svg width="40" height="40" viewBox="0 0 40 40" fill="none" xmlns="http://www.w3.org/2000/svg">
<rect width="40" height="40" rx="20" fill="#212121"/>
<path d="M24.6186 8H24.7893C24.9263 9.69253 24.2803 10.9572 23.4951 11.873C22.7247 12.7825 21.6698 13.6646 19.9636 13.5308C19.8497 11.8625 20.4968 10.6916 21.2809 9.77789C22.0081 8.92636 23.3412 8.16862 24.6186 8ZM29.7836 25.6167V25.6641C29.3041 27.1163 28.6201 28.361 27.7855 29.516C27.0235 30.5646 26.0898 31.9758 24.4225 31.9758C22.9819 31.9758 22.025 31.0494 20.5485 31.0241C18.9866 30.9988 18.1277 31.7987 16.6997 32H16.2128C15.1642 31.8482 14.3179 31.0178 13.7014 30.2695C11.8835 28.0585 10.4786 25.2025 10.2173 21.5476V20.4737C10.3279 17.858 11.5989 15.7313 13.2883 14.7006C14.1799 14.1525 15.4055 13.6857 16.7703 13.8943C17.3552 13.985 17.9528 14.1852 18.4765 14.3833C18.9729 14.5741 19.5937 14.9124 20.1817 14.8945C20.5801 14.8829 20.9763 14.6753 21.3779 14.5288C22.554 14.1041 23.7069 13.6172 25.2266 13.8459C27.053 14.122 28.3493 14.9335 29.1502 16.1855C27.6052 17.1688 26.3838 18.6505 26.5925 21.1809C26.778 23.4794 28.1143 24.8241 29.7836 25.6167Z" fill="white"/>
</svg>
