<svg width="57" height="24" viewBox="0 0 57 24" fill="none" xmlns="http://www.w3.org/2000/svg">
<path d="M11.3169 4.77881C11.4959 4.77881 11.8011 4.80729 12.2324 4.86426C12.6637 4.92122 13.1357 5.08398 13.6484 5.35254C14.1693 5.61296 14.6413 6.04834 15.0645 6.65869C15.04 6.68311 14.922 6.77262 14.7104 6.92725C14.4989 7.07373 14.2629 7.29346 14.0024 7.58643C13.742 7.87126 13.5142 8.23747 13.3188 8.68506C13.1235 9.12451 13.0259 9.64941 13.0259 10.2598C13.0259 10.9596 13.1479 11.5537 13.3921 12.042C13.6444 12.5303 13.9333 12.925 14.2588 13.2261C14.5924 13.519 14.8854 13.7347 15.1377 13.873C15.3981 14.0114 15.5365 14.0846 15.5527 14.0928C15.5446 14.1253 15.4388 14.4142 15.2354 14.9595C15.04 15.5047 14.7145 16.111 14.2588 16.7783C13.86 17.3561 13.4287 17.8892 12.9648 18.3774C12.5091 18.8657 11.9598 19.1099 11.3169 19.1099C10.8856 19.1099 10.5316 19.0488 10.2549 18.9268C9.97819 18.7965 9.69336 18.6704 9.40039 18.5483C9.10742 18.4181 8.71273 18.353 8.21631 18.353C7.73617 18.353 7.33333 18.4181 7.00781 18.5483C6.69043 18.6785 6.38525 18.8088 6.09229 18.939C5.80745 19.0692 5.46973 19.1343 5.0791 19.1343C4.48503 19.1343 3.96419 18.8983 3.5166 18.4263C3.06901 17.9543 2.60921 17.3887 2.13721 16.7295C1.59196 15.9482 1.12402 14.9961 0.733398 13.873C0.350911 12.7419 0.159668 11.6025 0.159668 10.4551C0.159668 9.22624 0.391602 8.19678 0.855469 7.3667C1.31934 6.52848 1.91341 5.89779 2.6377 5.47461C3.37012 5.04329 4.12695 4.82764 4.9082 4.82764C5.32324 4.82764 5.71387 4.89681 6.08008 5.03516C6.44629 5.16536 6.78809 5.29964 7.10547 5.43799C7.43099 5.57633 7.72396 5.64551 7.98438 5.64551C8.23665 5.64551 8.52962 5.57227 8.86328 5.42578C9.19694 5.2793 9.57129 5.13688 9.98633 4.99854C10.4014 4.85205 10.8449 4.77881 11.3169 4.77881ZM10.6455 3.22852C10.3281 3.611 9.92936 3.93245 9.44922 4.19287C8.96908 4.44515 8.51335 4.57129 8.08203 4.57129C7.99251 4.57129 7.90706 4.56315 7.82568 4.54688C7.81755 4.52246 7.80941 4.4777 7.80127 4.4126C7.79313 4.34749 7.78906 4.27832 7.78906 4.20508C7.78906 3.7168 7.89486 3.24479 8.10645 2.78906C8.31803 2.3252 8.55811 1.94271 8.82666 1.6416C9.16846 1.2347 9.59977 0.896973 10.1206 0.628418C10.6414 0.359863 11.1379 0.217448 11.6099 0.201172C11.6343 0.306966 11.6465 0.433105 11.6465 0.57959C11.6465 1.06787 11.5529 1.54395 11.3657 2.00781C11.1785 2.46354 10.9385 2.87044 10.6455 3.22852ZM19.4834 12.9819V10.687H24.0244C25.2126 10.687 26.1322 10.3818 26.7832 9.77148C27.4424 9.15299 27.772 8.2985 27.772 7.20801V7.18359C27.772 6.07682 27.4424 5.21826 26.7832 4.60791C26.1322 3.99756 25.2126 3.69238 24.0244 3.69238H19.4834V1.38525H24.7202C25.8758 1.38525 26.889 1.62939 27.7598 2.11768C28.6387 2.59782 29.3263 3.27327 29.8228 4.14404C30.3192 5.00667 30.5674 6.01172 30.5674 7.15918V7.18359C30.5674 8.33105 30.3192 9.34424 29.8228 10.2231C29.3263 11.0939 28.6387 11.7734 27.7598 12.2617C26.889 12.7419 25.8758 12.9819 24.7202 12.9819H19.4834ZM18.104 19V1.38525H20.8506V19H18.104ZM35.6333 19.2319C34.7869 19.2319 34.0382 19.0692 33.3872 18.7437C32.7443 18.4181 32.2397 17.9624 31.8735 17.3765C31.5155 16.7905 31.3364 16.111 31.3364 15.3379V15.3135C31.3364 14.5648 31.5236 13.9178 31.8979 13.3726C32.2723 12.8192 32.8175 12.3879 33.5337 12.0786C34.2498 11.7612 35.1165 11.57 36.1338 11.5049L40.9922 11.2241V13.0796L36.4878 13.3604C35.6821 13.4092 35.0636 13.6004 34.6323 13.9341C34.2091 14.2596 33.9976 14.6991 33.9976 15.2524V15.2646C33.9976 15.8343 34.2132 16.286 34.6445 16.6196C35.0758 16.9451 35.6455 17.1079 36.3535 17.1079C36.9801 17.1079 37.5376 16.9818 38.0259 16.7295C38.5223 16.4691 38.9129 16.1191 39.1978 15.6797C39.4907 15.2321 39.6372 14.7316 39.6372 14.1782V10.3086C39.6372 9.60059 39.4134 9.0472 38.9658 8.64844C38.5264 8.24154 37.8916 8.03809 37.0615 8.03809C36.3128 8.03809 35.7065 8.19678 35.2427 8.51416C34.7788 8.83154 34.4899 9.24658 34.376 9.75928L34.3516 9.85693H31.8491L31.8613 9.72266C31.9346 8.9821 32.1868 8.32292 32.6182 7.74512C33.0576 7.15918 33.6598 6.69938 34.4248 6.36572C35.1898 6.02393 36.0972 5.85303 37.147 5.85303C38.2049 5.85303 39.1164 6.02799 39.8813 6.37793C40.6463 6.72786 41.2363 7.22428 41.6514 7.86719C42.0745 8.50195 42.2861 9.25472 42.2861 10.1255V19H39.6372V16.998H39.564C39.3117 17.4538 38.9862 17.8485 38.5874 18.1821C38.1968 18.5158 37.7492 18.7762 37.2446 18.9634C36.7482 19.1424 36.2111 19.2319 35.6333 19.2319ZM46.4243 23.3335C46.1883 23.3335 45.9482 23.3213 45.7041 23.2969C45.46 23.2806 45.2565 23.2562 45.0938 23.2236V21.1606C45.1995 21.1769 45.3257 21.1932 45.4722 21.2095C45.6268 21.2257 45.7896 21.2339 45.9604 21.2339C46.5871 21.2339 47.0835 21.12 47.4497 20.8921C47.8241 20.6724 48.117 20.2533 48.3286 19.6348L48.5483 19.0122L43.8486 6.10938H46.7173L50.1719 17.2544L49.6592 16.5708H50.355L49.8545 17.2544L53.3091 6.10938H56.0923L51.2949 19.5737C50.9694 20.4852 50.591 21.2176 50.1597 21.771C49.7284 22.3244 49.2116 22.7231 48.6094 22.9673C48.0072 23.2114 47.2788 23.3335 46.4243 23.3335Z" fill="#212121"/>
</svg>
