<svg width="9" height="14" viewBox="0 0 9 14" fill="none" xmlns="http://www.w3.org/2000/svg">
<path d="M8.11377 7.21191C8.11377 7.3584 8.08447 7.49756 8.02588 7.62939C7.97217 7.75635 7.88428 7.87842 7.76221 7.99561L2.12988 13.5107C1.93945 13.6963 1.70752 13.7891 1.43408 13.7891C1.2583 13.7891 1.09473 13.7451 0.943359 13.6572C0.791992 13.5693 0.669922 13.4521 0.577148 13.3057C0.489258 13.1592 0.445312 12.9932 0.445312 12.8076C0.445312 12.5391 0.547852 12.2998 0.75293 12.0898L5.77002 7.21191L0.75293 2.33398C0.547852 2.12891 0.445312 1.88965 0.445312 1.61621C0.445312 1.43555 0.489258 1.27197 0.577148 1.12549C0.669922 0.974121 0.791992 0.854492 0.943359 0.766602C1.09473 0.678711 1.2583 0.634766 1.43408 0.634766C1.70752 0.634766 1.93945 0.727539 2.12988 0.913086L7.76221 6.42822C7.87939 6.54541 7.96729 6.66748 8.02588 6.79443C8.08447 6.92139 8.11377 7.06055 8.11377 7.21191Z" fill="#919191" fill-opacity="0.6"/>
</svg>
