<svg width="20" height="20" viewBox="0 0 20 20" fill="none" xmlns="http://www.w3.org/2000/svg">
<rect width="20" height="20" rx="10" fill="#2DA0ED"/>
<path fill-rule="evenodd" clip-rule="evenodd" d="M7.66666 5.33333C7.66666 5.01117 7.90774 4.75 8.20512 4.75H11.7948C12.0922 4.75 12.3333 5.01117 12.3333 5.33333C12.3333 5.6555 12.0922 5.91667 11.7948 5.91667H8.20512C7.90774 5.91667 7.66666 5.6555 7.66666 5.33333Z" fill="white"/>
<path fill-rule="evenodd" clip-rule="evenodd" d="M8.70369 15.25H11.2963C13.1169 15.25 14.0272 15.25 14.6811 14.8287C14.9642 14.6462 15.2072 14.4119 15.3964 14.1389C15.8333 13.5083 15.8333 12.6305 15.8333 10.8749C15.8333 9.11934 15.8332 8.24166 15.3963 7.61109C15.2072 7.33811 14.9641 7.10373 14.681 6.92133C14.0271 6.5 13.1168 6.5 11.2962 6.5H8.7036C6.883 6.5 5.9727 6.5 5.31879 6.92133C5.0357 7.10373 4.79264 7.33811 4.60349 7.61109C4.16666 8.24152 4.16666 9.11893 4.16666 10.8738V10.8749C4.16666 12.6305 4.16666 13.5083 4.60358 14.1389C4.79274 14.4119 5.03579 14.6462 5.31888 14.8287C5.9728 15.25 6.88309 15.25 8.70369 15.25ZM7.56943 10.8749C7.56943 9.58047 8.65763 8.53114 9.99999 8.53114C11.3424 8.53114 12.4306 9.58047 12.4306 10.8749C12.4306 12.1694 11.3424 13.2187 9.99999 13.2187C8.65763 13.2187 7.56943 12.1694 7.56943 10.8749ZM8.54166 10.8749C8.54166 10.0983 9.19458 9.46864 9.99999 9.46864C10.8054 9.46864 11.4583 10.0983 11.4583 10.8749C11.4583 11.6516 10.8054 12.2812 9.99999 12.2812C9.19458 12.2812 8.54166 11.6516 8.54166 10.8749ZM13.5648 8.53114C13.2963 8.53114 13.0787 8.74101 13.0787 8.99987C13.0787 9.25882 13.2963 9.46864 13.5648 9.46864H13.8889C14.1573 9.46864 14.375 9.25882 14.375 8.99987C14.375 8.74101 14.1573 8.53114 13.8889 8.53114H13.5648Z" fill="white"/>
</svg>
