<svg width="40" height="40" viewBox="0 0 40 40" fill="none" xmlns="http://www.w3.org/2000/svg">
<rect width="40" height="40" rx="20" fill="#1C4A80"/>
<path fill-rule="evenodd" clip-rule="evenodd" d="M12.6499 19.8478L12.7901 19.2943C13.3289 19.1319 14.4286 19.0581 14.6353 19.6412C14.7533 19.9807 14.4138 21.3903 14.3474 21.8036L13.8234 21.811C13.7053 21.6634 13.8013 21.9365 13.7201 21.5748C13.2182 22.025 12.148 21.9512 12.2292 21.0434C12.3104 20.143 13.0927 20.2611 13.9415 20.1283C13.9267 19.5526 13.2034 19.7076 12.6425 19.8404L12.6499 19.8478ZM16.5985 19.7592C16.1187 19.7592 16.0449 19.6559 15.6242 19.8404C15.6759 20.3644 15.949 20.1578 16.3254 20.4087C17.0413 20.8811 16.2737 22.3424 14.5688 21.7151L14.6648 21.1837C15.1445 21.2796 15.3881 21.3756 15.7571 21.1689C15.8457 20.4235 14.5245 20.9106 14.8936 19.715C15.0928 19.0655 15.9711 19.154 16.6944 19.2205L16.5911 19.7592H16.5985ZM9.24749 18.63L10.3767 18.6669L10.4948 20.4382L11.1074 19.0212C11.314 18.5119 11.1738 18.6226 12.4728 18.6374L11.8897 21.8036L11.255 21.7962L11.6019 19.5231L10.6645 21.811L9.90435 21.7889C9.88221 21.346 9.84531 19.7888 9.72722 19.4935L9.34343 21.7962L8.67919 21.7889L9.24749 18.63ZM20.0156 25.3536L20.3256 24.9846C19.7057 24.9034 19.595 25.0805 19.3145 24.5787L20.7389 24.5639C20.8275 24.4163 20.9751 24.2761 21.0489 24.1063C19.4252 23.9956 18.9676 24.4089 18.7093 23.7004H21.3146L21.6025 23.2502L18.3846 23.2354L18.2369 22.859L21.7058 22.8443C21.9051 22.7336 21.9051 22.6081 21.9567 22.3793L18.6724 22.3719C18.082 22.3793 18.045 22.5121 17.9343 21.9734H22.0674L22.2003 21.5158L20.9899 21.501L20.9308 21.811L20.2371 21.7815L20.6725 19.2057L21.3294 19.2943C21.3294 19.309 21.3441 19.3607 21.3441 19.3828C21.3441 19.3976 21.3515 19.4197 21.3515 19.4271L21.3884 19.56C21.5729 19.3386 21.691 19.1762 22.1191 19.1909L21.8977 19.7888C21.7722 19.9511 21.4032 19.7666 21.2482 20.2094L21.9715 20.239C22.0527 19.774 22.1412 19.6338 22.2741 19.2574L22.2815 19.036L17.7572 19.0433L17.7424 19.2057C17.986 19.2057 17.9786 19.1614 18.1189 19.2795L18.0524 19.715C17.5948 19.8257 17.6096 19.5526 17.5653 20.1504C17.6317 20.2611 17.5506 20.2021 17.6908 20.239L17.9786 20.2463C18.4436 18.7334 19.8311 19.0655 20.1485 19.5378C20.3182 19.7888 20.488 20.6154 20.0673 20.6818L18.6576 20.6966C18.7241 21.442 19.5802 21.287 20.1337 21.1025C20.1116 21.4125 20.1337 21.6634 19.8459 21.7667C19.6171 21.8479 19.1374 21.8258 18.8864 21.7667C18.2665 21.6265 18.0008 21.3165 17.9565 20.6449L17.6908 20.6375C17.4472 20.5268 17.6391 20.6375 17.5137 20.3349C17.4103 20.9549 17.1299 21.3534 17.8974 21.2648C17.8532 21.6339 17.9048 21.7593 17.4989 21.8036C16.318 21.9439 16.7018 21.1541 16.8937 20.0987C17.1963 18.416 16.9601 18.6226 17.8163 18.6374L22.215 18.6448L22.1265 18.1872L17.8753 18.1724L17.9565 17.8034L21.9789 17.7813C21.8755 17.1539 21.8534 17.3089 20.392 17.3089H18.1631C18.3181 16.7702 18.2369 16.9178 19.6835 16.9178H21.6394L21.4327 16.4528L18.5986 16.4454L18.7905 16.0616L21.1596 16.0469C20.857 15.4269 20.8718 15.604 19.1964 15.5745C19.4104 15.0431 19.7868 15.176 20.4437 15.176C20.2592 14.8808 20.1264 14.9029 20.0156 14.652C19.7426 14.5117 19.499 14.2608 19.2259 14.0689C17.1372 12.5928 14.3031 12.4378 12.0299 13.5449C9.98554 14.5339 7.97804 16.8218 8.00018 19.988C8.0297 24.5122 12.0004 27.8113 16.4951 27.0437C18.606 26.6821 19.1374 25.826 20.0083 25.3462L20.0156 25.3536Z" fill="#E41D2C"/>
<path fill-rule="evenodd" clip-rule="evenodd" d="M24.8352 19.2722C27.1231 18.8072 26.7467 19.9364 26.5622 20.8516C26.5032 21.1247 26.5032 21.6634 26.2891 21.811C26.2375 21.811 25.9349 21.8184 25.9053 21.8037C25.6987 21.7225 25.7946 21.966 25.7651 21.5896C25.1452 21.9439 24.1635 22.0251 24.2816 21.0361C24.3776 20.2464 25.1747 20.1209 25.9865 20.1578C25.957 19.5748 25.4256 19.6707 24.6876 19.8552L24.8426 19.2722H24.8352ZM27.0936 19.2057L27.7062 19.2131C27.7136 19.2279 27.721 19.25 27.721 19.2648L27.8169 19.5379C27.9276 19.3681 28.1343 19.2205 28.459 19.2131L28.3704 19.7371L28.0678 19.8552C27.4626 20.0545 27.4995 20.8147 27.3372 21.811H26.6508L27.0936 19.2057ZM30.3484 18.6448H30.9758L30.437 21.8184C29.7358 21.8258 29.9056 21.8627 29.6842 21.597C29.2266 22.276 27.8538 21.6487 28.2745 20.2464C28.5845 19.1984 29.6325 18.9179 30.1491 19.5379L30.3558 18.6375L30.3484 18.6448ZM20.0231 14.6594C20.1338 14.9103 20.274 14.8882 20.4512 15.1834C19.7943 15.1834 19.4179 15.0432 19.2038 15.5819C20.8792 15.6115 20.8645 15.4343 21.1671 16.0543L18.7979 16.0691L18.606 16.4528L21.4401 16.4602L21.6468 16.9252H19.691C18.2518 16.9252 18.3256 16.785 18.1706 17.3164H20.3995C21.8608 17.3164 21.883 17.1614 21.9863 17.7887L17.9639 17.8108L17.8827 18.1799L22.1339 18.1946L22.2225 18.6522L17.8237 18.6448L17.7646 19.0581L22.2889 19.0508L22.2815 19.2722C22.621 18.9474 22.562 18.7777 23.1967 18.5932C23.7207 18.4456 24.0528 18.5563 24.5695 18.667L24.4588 19.346C23.5731 19.0803 22.9974 19.1467 22.7908 20.0619C22.562 21.0435 23.3369 21.4125 24.1562 21.0213C24.0824 21.7372 23.9643 21.9144 23.1229 21.8037C22.5398 21.7299 22.3627 21.4494 22.1044 21.1025H21.049L20.9899 21.5084L22.2003 21.5232L22.0675 21.9808H17.9344C18.0451 22.5196 18.082 22.3867 18.6725 22.3793L21.9568 22.3867C21.8977 22.6081 21.9051 22.741 21.7058 22.8517L18.237 22.8665L18.3846 23.2429L21.6025 23.2576L21.3147 23.7078H18.7094C18.9677 24.409 19.4253 24.003 21.049 24.1137C20.9752 24.2835 20.8276 24.4237 20.739 24.5713L19.3146 24.5861C19.5876 25.0806 19.7057 24.9108 20.3257 24.992L20.0157 25.361C21.0711 26.136 21.8904 26.7855 23.5952 27.0807C25.1452 27.3464 26.7615 27.0512 28.0088 26.4386C33.4113 23.7742 33.2637 16.0986 27.9645 13.5597C26.0603 12.6519 23.5362 12.5707 21.5656 13.604C20.6135 14.0985 20.3847 14.4527 20.0305 14.6668L20.0231 14.6594Z" fill="#F8B02B"/>
<path fill-rule="evenodd" clip-rule="evenodd" d="M8.6792 21.7963L9.34344 21.8037L9.72723 19.501C9.84532 19.7962 9.88222 21.3535 9.90436 21.7963L10.6646 21.8185L11.6019 19.5305L11.255 21.8037L11.8897 21.8111L12.4728 18.6449C11.1738 18.6301 11.314 18.5194 11.1074 19.0287L10.4948 20.4457L10.3767 18.6744L9.2475 18.6375L8.6792 21.7963ZM29.2413 21.2133C28.6877 20.645 29.1601 19.7003 29.6767 19.8257C30.186 19.9512 30.09 21.1985 29.2413 21.2133ZM30.1417 19.5379C29.6251 18.9179 28.5844 19.1984 28.2671 20.2464C27.8464 21.6413 29.2191 22.2761 29.6767 21.597C29.8982 21.8627 29.7284 21.8185 30.4295 21.8185L30.9683 18.6449H30.341L30.1343 19.5453L30.1417 19.5379ZM25.0713 21.2206C24.968 20.7262 25.4256 20.5343 25.861 20.6228C25.8832 21.1247 25.5289 21.3978 25.0713 21.2206ZM24.8351 19.2796L24.6801 19.8626C25.4182 19.6855 25.957 19.5896 25.9791 20.1652C25.1672 20.1283 24.3702 20.2538 24.2742 21.0435C24.1487 22.0325 25.1377 21.9513 25.7577 21.597C25.7872 21.9735 25.6913 21.7299 25.8979 21.8111C25.9274 21.8258 26.23 21.8185 26.2817 21.8185C26.5031 21.6782 26.5031 21.1321 26.5548 20.859C26.7467 19.9364 27.1157 18.8146 24.8277 19.2796H24.8351ZM13.8234 20.6007C13.8382 20.8516 13.7939 21.0435 13.6315 21.169C13.5208 21.2502 13.1887 21.3461 13.0558 21.2206C12.6425 20.8442 13.4175 20.5933 13.816 20.6007H13.8234ZM12.6499 19.8479C13.2108 19.715 13.9341 19.56 13.9489 20.1357C13.1001 20.2686 12.3178 20.1505 12.2366 21.0509C12.148 21.9587 13.2182 22.0325 13.7275 21.5823C13.8087 21.9439 13.7127 21.6709 13.8308 21.8185L14.3548 21.8111C14.4212 21.3904 14.7607 19.9881 14.6426 19.6486C14.436 19.0582 13.3437 19.132 12.7975 19.3017L12.6573 19.8553L12.6499 19.8479ZM18.7683 20.2169C18.8643 19.8405 19.0267 19.6855 19.4621 19.7446C19.6171 19.966 19.6171 19.8995 19.6466 20.2169H18.7683ZM17.986 20.2538L17.9565 20.6524C18.0008 21.324 18.2739 21.6266 18.8864 21.7742C19.1374 21.8332 19.6171 21.8554 19.8459 21.7742C20.1337 21.6782 20.1116 21.4199 20.1337 21.1099C19.5802 21.2945 18.7241 21.4494 18.6576 20.704L20.0673 20.6893C20.488 20.6228 20.3183 19.8036 20.1485 19.5453C19.8311 19.0729 18.4436 18.7408 17.9786 20.2538H17.986ZM22.2815 19.2722C22.1486 19.6486 22.0601 19.7888 21.9789 20.2538V20.6597L22.1043 21.1099C22.3627 21.4568 22.5398 21.7373 23.1228 21.8111C23.9642 21.9218 24.0823 21.7447 24.1561 21.0288C23.3295 21.4199 22.5619 21.0509 22.7907 20.0693C23.0048 19.1467 23.5804 19.0877 24.4587 19.3534L24.5694 18.6744C24.0528 18.5711 23.7207 18.4604 23.1967 18.6006C22.5619 18.7777 22.621 18.9548 22.2815 19.2796V19.2722ZM16.6944 19.2205C15.9711 19.1615 15.0929 19.0656 14.8936 19.715C14.5246 20.9107 15.8383 20.4236 15.7571 21.169C15.3807 21.3756 15.1445 21.2797 14.6648 21.1837L14.5688 21.7151C16.2737 22.3425 17.0339 20.8885 16.3254 20.4088C15.949 20.1579 15.6759 20.3719 15.6243 19.8405C16.0449 19.6486 16.1114 19.7593 16.5985 19.7593L16.7018 19.2205H16.6944Z" fill="#FEFEFE"/>
<path fill-rule="evenodd" clip-rule="evenodd" d="M17.5209 20.3424L17.5726 20.1653C17.6169 19.5675 17.6021 19.8405 18.0597 19.7298L18.1261 19.2944C17.9859 19.1763 17.9933 19.2206 17.7497 19.2206L17.7645 19.0582L17.8235 18.6449C16.9674 18.6301 17.2036 18.4235 16.901 20.1062C16.7091 21.1616 16.3253 21.9513 17.5062 21.8111C17.9047 21.7668 17.8604 21.6414 17.9047 21.2723C17.1445 21.3609 17.425 20.9624 17.5209 20.3424ZM20.9898 21.5159L21.0488 21.11L21.1226 20.6671L21.2555 20.2243C21.4178 19.7815 21.7869 19.966 21.9049 19.8036L22.1264 19.2058C21.6909 19.1911 21.5728 19.3534 21.3957 19.5748L21.3588 19.442C21.3588 19.4346 21.3514 19.4125 21.3514 19.3977C21.3514 19.383 21.3366 19.3239 21.3366 19.3091L20.6798 19.2206L20.2443 21.7964L20.9381 21.8259L20.9971 21.5159H20.9898ZM26.6506 21.8111H27.337C27.4994 20.8148 27.4625 20.0546 28.0677 19.8553L28.3703 19.7372L28.4588 19.2132C28.1341 19.2206 27.9274 19.3682 27.8167 19.5379L27.7208 19.2649C27.7134 19.2501 27.7134 19.228 27.706 19.2132L27.0934 19.2058L26.6506 21.8111Z" fill="#FEFEFE"/>
<path fill-rule="evenodd" clip-rule="evenodd" d="M29.2412 21.2133C30.0973 21.1986 30.1932 19.9513 29.6766 19.8258C29.1526 19.7003 28.6876 20.645 29.2412 21.2133Z" fill="#F8B02B"/>
<path fill-rule="evenodd" clip-rule="evenodd" d="M13.8234 20.6006C13.4249 20.5932 12.6499 20.8442 13.0632 21.2206C13.1961 21.3387 13.5282 21.2427 13.6389 21.1689C13.8013 21.0508 13.8382 20.8516 13.8308 20.6006H13.8234ZM21.0489 21.1025L22.1043 21.1099L21.9789 20.6597H21.1227L21.0489 21.1025Z" fill="#E41D2C"/>
<path fill-rule="evenodd" clip-rule="evenodd" d="M25.0714 21.2207C25.5363 21.3904 25.8832 21.1247 25.8611 20.6228C25.4183 20.5417 24.968 20.7336 25.0714 21.2207ZM21.1228 20.6597H21.9789V20.2538L21.2557 20.2169L21.1228 20.6597Z" fill="#F8B02B"/>
<path fill-rule="evenodd" clip-rule="evenodd" d="M18.7683 20.2169H19.6466C19.6244 19.9069 19.6171 19.966 19.4621 19.7446C19.0266 19.6855 18.8643 19.8405 18.7683 20.2169Z" fill="#E41D2C"/>
<path fill-rule="evenodd" clip-rule="evenodd" d="M17.521 20.3423C17.6465 20.6449 17.4546 20.5342 17.6981 20.6449L17.9638 20.6523L17.9933 20.2537L17.7055 20.2463C17.5579 20.2168 17.6391 20.2685 17.58 20.1578L17.5284 20.3349L17.521 20.3423Z" fill="#F8B02B"/>
</svg>
