<svg width="20" height="20" viewBox="0 0 20 20" fill="none" xmlns="http://www.w3.org/2000/svg">
<path fill-rule="evenodd" clip-rule="evenodd" d="M18.3333 9.99996C18.3333 14.6023 14.6023 18.3333 9.99996 18.3333C5.39758 18.3333 1.66663 14.6023 1.66663 9.99996C1.66663 5.39758 5.39758 1.66663 9.99996 1.66663C14.6023 1.66663 18.3333 5.39758 18.3333 9.99996ZM13.3585 7.47468C13.6026 7.71876 13.6026 8.11449 13.3585 8.35854L9.19188 12.5252C8.94779 12.7693 8.55213 12.7693 8.30802 12.5252L6.64135 10.8585C6.39728 10.6145 6.39728 10.2188 6.64135 9.97471C6.88543 9.73063 7.28116 9.73063 7.52523 9.97471L8.74996 11.1994L10.6123 9.33704L12.4747 7.47468C12.7188 7.23061 13.1145 7.23061 13.3585 7.47468Z" fill="#14AD06"/>
</svg>
