<svg width="21" height="16" viewBox="0 0 21 16" fill="none" xmlns="http://www.w3.org/2000/svg">
<path fill-rule="evenodd" clip-rule="evenodd" d="M1.42157 1.17157C0.25 2.34315 0.25 4.22876 0.25 8C0.25 11.7712 0.25 13.6569 1.42157 14.8284C2.59315 16 4.47876 16 8.25 16H12.25C16.0212 16 17.9069 16 19.0784 14.8284C20.25 13.6569 20.25 11.7712 20.25 8C20.25 4.22876 20.25 2.34315 19.0784 1.17157C17.9069 -1.19209e-07 16.0212 0 12.25 0H8.25C4.47876 0 2.59315 -1.19209e-07 1.42157 1.17157ZM16.8262 3.51986C17.0913 3.83807 17.0483 4.31099 16.7301 4.57617L14.5337 6.4066C13.6473 7.1452 12.9289 7.7439 12.2948 8.1517C11.6343 8.5765 10.9911 8.8449 10.25 8.8449C9.5089 8.8449 8.8657 8.5765 8.20518 8.1517C7.57112 7.7439 6.85271 7.1452 5.96636 6.4066L3.76986 4.57617C3.45165 4.31099 3.40866 3.83807 3.67383 3.51986C3.93901 3.20165 4.41193 3.15866 4.73014 3.42383L6.88903 5.22291C7.82199 6.0004 8.4697 6.5384 9.0166 6.8901C9.5459 7.2306 9.9049 7.3449 10.25 7.3449C10.5951 7.3449 10.9541 7.2306 11.4834 6.8901C12.0303 6.5384 12.678 6.0004 13.611 5.22291L15.7699 3.42383C16.0881 3.15866 16.561 3.20165 16.8262 3.51986Z" fill="#2DA0ED"/>
</svg>
