<svg width="20" height="17" viewBox="0 0 20 17" fill="none" xmlns="http://www.w3.org/2000/svg">
<path fill-rule="evenodd" clip-rule="evenodd" d="M1.17157 1.20612C1.19209e-07 2.3777 0 4.26331 0 8.03455C0 11.8057 1.19209e-07 13.6914 1.17157 14.8629C2.34315 16.0345 4.22876 16.0345 8 16.0345H12C15.7712 16.0345 17.6569 16.0345 18.8284 14.8629C20 13.6914 20 11.8057 20 8.03455C20 4.26331 20 2.3777 18.8284 1.20612C17.6569 0.0345458 15.7712 0.0345459 12 0.0345459H8C4.22876 0.0345459 2.34315 0.0345458 1.17157 1.20612ZM16.5762 3.55441C16.8413 3.87262 16.7983 4.34554 16.4801 4.61072L14.2837 6.44115C13.3973 7.17975 12.6789 7.77845 12.0448 8.18625C11.3843 8.61105 10.7411 8.87945 10 8.87945C9.2589 8.87945 8.6157 8.61105 7.95518 8.18625C7.32112 7.77845 6.60271 7.17975 5.71636 6.44115L3.51986 4.61072C3.20165 4.34554 3.15866 3.87262 3.42383 3.55441C3.68901 3.2362 4.16193 3.19321 4.48014 3.45838L6.63903 5.25746C7.57199 6.03495 8.2197 6.57295 8.7666 6.92465C9.2959 7.26515 9.6549 7.37945 10 7.37945C10.3451 7.37945 10.7041 7.26515 11.2334 6.92465C11.7803 6.57295 12.428 6.03495 13.361 5.25746L15.5199 3.45838C15.8381 3.19321 16.311 3.2362 16.5762 3.55441Z" fill="#212121"/>
</svg>
