<svg width="29" height="28" viewBox="0 0 29 28" fill="none" xmlns="http://www.w3.org/2000/svg">
<path d="M19.729 7.00196C18.5615 7.00186 17.5234 7.00178 16.6852 7.1145C15.7743 7.23702 14.8544 7.51952 14.1026 8.27156C13.3507 9.0236 13.0683 9.94376 12.9459 10.855C12.8332 11.6934 12.8332 12.732 12.8334 13.8997V15.0045H11.8334C10.9129 15.0045 10.1667 15.7509 10.1667 16.6717C10.1667 17.5924 10.9129 18.3389 11.8334 18.3389H12.8334V26.3354C12.8334 26.9678 12.8334 27.284 12.6351 27.4798C12.4368 27.6757 12.1231 27.6717 11.4956 27.6637C9.90972 27.6437 8.56104 27.5881 7.4174 27.4342C5.58187 27.1874 4.12552 26.6712 2.98125 25.5265C1.837 24.382 1.32095 22.9252 1.07416 21.089C0.833348 19.2972 0.833361 17.0022 0.833374 14.0804V13.9278C0.833361 11.0061 0.833348 8.71107 1.07416 6.9193C1.32095 5.08318 1.837 3.62638 2.98125 2.48175C4.12552 1.33712 5.58187 0.820911 7.4174 0.574058C9.20861 0.333164 11.5029 0.333178 14.4238 0.333191H14.5763C17.4972 0.333178 19.7915 0.333164 21.5827 0.574058C23.4182 0.820911 24.8746 1.33712 26.0188 2.48175C27.1631 3.62638 27.6791 5.08316 27.9259 6.9193C28.1667 8.71107 28.1667 11.0061 28.1667 13.9278V14.0805C28.1667 17.0022 28.1667 19.2972 27.9259 21.089C27.6791 22.9252 27.1631 24.382 26.0188 25.5265C24.8746 26.6712 23.4182 27.1874 21.5827 27.4342C20.4391 27.5881 19.0903 27.6437 17.5044 27.6637C16.877 27.6717 16.5632 27.6757 16.365 27.4798C16.1667 27.284 16.1667 26.9678 16.1667 26.3354V18.3389H18.5C19.4206 18.3389 20.1667 17.5924 20.1667 16.6717C20.1667 15.7509 19.4206 15.0045 18.5 15.0045H16.1667V14.0041C16.1667 12.6996 16.1703 11.8888 16.2495 11.2993C16.321 10.7673 16.4266 10.6622 16.458 10.6309L16.4596 10.6293L16.4612 10.6277C16.4924 10.5963 16.5975 10.4907 17.1294 10.4191C17.7187 10.3399 18.5292 10.3364 19.8334 10.3364H21.1667C22.0872 10.3364 22.8334 9.58992 22.8334 8.66915C22.8334 7.74839 22.0872 7.00196 21.1667 7.00196H19.729Z" fill="#414141"/>
</svg>
