<svg width="14" height="14" viewBox="0 0 14 14" fill="none" xmlns="http://www.w3.org/2000/svg">
<path d="M7.48557 12.7174C9.30901 12.3519 11.6667 11.0402 11.6667 7.64822C11.6667 4.56145 9.40724 2.50598 7.78254 1.56152C7.42204 1.35194 7 1.62756 7 2.04456V3.11117C7 3.95226 6.64638 5.4875 5.66377 6.12607C5.1621 6.4521 4.6203 5.96414 4.55933 5.36895L4.50927 4.88021C4.45107 4.31204 3.87241 3.96712 3.41831 4.31354C2.60252 4.93586 1.75 6.02562 1.75 7.64822C1.75 11.7964 4.83519 12.8334 6.37776 12.8334C6.46747 12.8334 6.5618 12.8307 6.65997 12.8251C5.89826 12.76 4.66667 12.2874 4.66667 10.7591C4.66667 9.56371 5.53879 8.75498 6.20142 8.36187C6.37962 8.25611 6.58822 8.39343 6.58822 8.60063V8.94433C6.58822 9.20735 6.68996 9.61854 6.9321 9.9C7.20615 10.2185 7.60836 9.88484 7.64079 9.46595C7.65106 9.33382 7.78394 9.24959 7.89839 9.31649C8.27248 9.53513 8.75 10.0021 8.75 10.7591C8.75 11.9538 8.09142 12.5034 7.48557 12.7174Z" fill="#F9504A"/>
</svg>
