<svg width="40" height="40" viewBox="0 0 40 40" fill="none" xmlns="http://www.w3.org/2000/svg">
<rect width="40" height="40" rx="20" fill="#7EA71D"/>
<path d="M20.5285 18.5938C20.2121 19.5309 19.3721 20.1003 18.448 20.1003C18.3 20.1003 18.1549 20.0655 18.0095 20.0357L19.1319 21.7194C19.3475 22.0428 19.2603 22.4788 18.9369 22.6944C18.6084 22.9122 18.174 22.818 17.9619 22.4994L16.4375 20.2129V28.4375H29.8906C31.0538 28.4375 32 27.4913 32 26.3281V18.5938H20.5285ZM28.4844 25.625H22.7656C22.377 25.625 22.0625 25.3105 22.0625 24.9219C22.0625 24.5332 22.377 24.2188 22.7656 24.2188H28.4844C28.873 24.2188 29.1875 24.5332 29.1875 24.9219C29.1875 25.3105 28.873 25.625 28.4844 25.625ZM28.4844 22.8125H22.7656C22.377 22.8125 22.0625 22.498 22.0625 22.1094C22.0625 21.7207 22.377 21.4062 22.7656 21.4062H28.4844C28.873 21.4062 29.1875 21.7207 29.1875 22.1094C29.1875 22.498 28.873 22.8125 28.4844 22.8125ZM18.0037 17.2225L17.0019 17.8906L18.0037 18.5587C18.5371 18.9142 19.25 18.5323 19.25 17.8913C19.25 17.2475 18.535 16.8683 18.0037 17.2225ZM10.1094 11.5625C8.94622 11.5625 8 12.5087 8 13.6719V17.1875H10.9403C11.4159 15.7788 13.0518 15.2577 14.245 16.0525L15.0312 16.5767V11.5625H10.1094ZM29.8906 11.5625H16.4375V16.5767L17.2237 16.0525C18.4043 15.2637 20.0499 15.7684 20.5287 17.1875H32V13.6719C32 12.5087 31.0538 11.5625 29.8906 11.5625ZM13.465 17.2225C12.9309 16.8664 12.2188 17.2507 12.2188 17.8899C12.2188 18.5311 12.9291 18.9154 13.465 18.5587L14.4668 17.8906L13.465 17.2225ZM13.5069 22.4994C13.2913 22.8214 12.8553 22.9072 12.5318 22.6944C12.2084 22.4788 12.1212 22.0428 12.3368 21.7193L13.4592 20.0357C13.3138 20.0654 13.1687 20.1002 13.0207 20.1002C12.0944 20.1002 11.2554 19.5286 10.94 18.5937H8V26.3281C8 27.4913 8.94622 28.4375 10.1094 28.4375H15.0312V20.2129L13.5069 22.4994Z" fill="white"/>
</svg>
