<svg width="40" height="40" viewBox="0 0 40 40" fill="none" xmlns="http://www.w3.org/2000/svg">
<rect width="40" height="40" rx="20" fill="white"/>
<g clip-path="url(#clip0_309_1745)">
<path d="M13.3189 22.5035L12.4835 25.6222L9.43011 25.6868C8.51759 23.9943 8 22.0578 8 20C8 18.0101 8.48394 16.1336 9.34175 14.4813H9.34241L12.0608 14.9797L13.2516 17.6818C13.0024 18.4084 12.8665 19.1884 12.8665 20C12.8666 20.8809 13.0262 21.7249 13.3189 22.5035Z" fill="#FBBB00"/>
<path d="M31.7904 17.7582C31.9282 18.4841 32.0001 19.2338 32.0001 20C32.0001 20.8591 31.9098 21.6971 31.7377 22.5055C31.1535 25.2563 29.6272 27.6582 27.5127 29.358L27.512 29.3574L24.0881 29.1827L23.6035 26.1576C25.0065 25.3347 26.103 24.047 26.6806 22.5055H20.2639V17.7582H31.7904Z" fill="#518EF8"/>
<path d="M27.5119 29.3574L27.5126 29.358C25.4561 31.011 22.8438 32 20.0001 32C15.4302 32 11.457 29.4457 9.43018 25.6868L13.319 22.5035C14.3324 25.2081 16.9414 27.1334 20.0001 27.1334C21.3148 27.1334 22.5465 26.778 23.6033 26.1576L27.5119 29.3574Z" fill="#28B446"/>
<path d="M27.6596 10.7626L23.7721 13.9453C22.6783 13.2615 21.3853 12.8666 20 12.8666C16.8721 12.8666 14.2143 14.8802 13.2517 17.6818L9.34245 14.4813H9.3418C11.339 10.6308 15.3622 8 20 8C22.9117 8 25.5814 9.03716 27.6596 10.7626Z" fill="#F14336"/>
</g>
<defs>
<clipPath id="clip0_309_1745">
<rect width="24" height="24" fill="white" transform="translate(8 8)"/>
</clipPath>
</defs>
</svg>
