<svg width="29" height="28" viewBox="0 0 29 28" fill="none" xmlns="http://www.w3.org/2000/svg">
<path fill-rule="evenodd" clip-rule="evenodd" d="M14.5762 0.333313C17.4972 0.3333 19.7914 0.333287 21.5826 0.5741C23.4181 0.820887 24.8745 1.33693 26.0188 2.48119C27.163 3.62546 27.679 5.08181 27.9258 6.91734C28.1666 8.70857 28.1666 11.0028 28.1666 13.9237V14.0762C28.1666 16.9972 28.1666 19.2914 27.9258 21.0826C27.679 22.9181 27.163 24.3745 26.0188 25.5188C24.8745 26.663 23.4181 27.179 21.5826 27.4258C19.7914 27.6666 17.4972 27.6666 14.5762 27.6666H14.4237C11.5028 27.6666 9.20857 27.6666 7.41734 27.4258C5.58181 27.179 4.12546 26.663 2.98119 25.5188C1.83694 24.3745 1.32089 22.9181 1.0741 21.0826C0.833287 19.2914 0.8333 16.9972 0.833313 14.0762V13.9237C0.8333 11.0028 0.833287 8.70857 1.0741 6.91734C1.32089 5.08181 1.83694 3.62546 2.98119 2.48119C4.12546 1.33693 5.58181 0.820887 7.41734 0.5741C9.20855 0.333287 11.5028 0.3333 14.4237 0.333313H14.5762ZM20.5 14C20.5 17.3137 17.8137 20 14.5 20C11.1863 20 8.49998 17.3137 8.49998 14C8.49998 10.6863 11.1863 7.99998 14.5 7.99998C17.8137 7.99998 20.5 10.6863 20.5 14ZM21.8497 7.99998C22.5828 7.99998 23.177 7.40303 23.177 6.66665C23.177 5.93027 22.5828 5.33331 21.8497 5.33331H21.8377C21.1046 5.33331 20.5104 5.93027 20.5104 6.66665C20.5104 7.40302 21.1046 7.99998 21.8377 7.99998H21.8497Z" fill="#414141"/>
</svg>
