<svg width="16" height="16" viewBox="0 0 16 16" fill="none" xmlns="http://www.w3.org/2000/svg">
<path d="M10.3333 7.33333C10.3333 8.622 9.28863 9.66667 7.99996 9.66667C6.71129 9.66667 5.66663 8.622 5.66663 7.33333C5.66663 6.04467 6.71129 5 7.99996 5C9.28863 5 10.3333 6.04467 10.3333 7.33333Z" stroke="#616161" stroke-width="1.5"/>
<path d="M8 1.33331C11.2471 1.33331 14 4.02197 14 7.28385C14 10.5976 11.2022 12.9231 8.618 14.5044C8.42967 14.6108 8.21667 14.6666 8 14.6666C7.78333 14.6666 7.57033 14.6108 7.382 14.5044C4.8026 12.9077 2 10.6091 2 7.28385C2 4.02197 4.75296 1.33331 8 1.33331Z" stroke="#616161" stroke-width="1.5"/>
</svg>
