<svg width="14" height="14" viewBox="0 0 14 14" fill="none" xmlns="http://www.w3.org/2000/svg">
<path d="M11.0833 5.25002C11.0833 7.50519 9.25516 9.33335 6.99999 9.33335C4.74483 9.33335 2.91666 7.50519 2.91666 5.25002C2.91666 2.99486 4.74483 1.16669 6.99999 1.16669C9.25516 1.16669 11.0833 2.99486 11.0833 5.25002Z" fill="#0CBD8B"/>
<path d="M4.13759 9.29913L3.91664 10.1051C3.55011 11.442 3.36684 12.1104 3.6114 12.4764C3.69711 12.6046 3.81208 12.7076 3.9455 12.7755C4.3262 12.9693 4.914 12.663 6.08959 12.0505C6.48077 11.8467 6.67637 11.7448 6.88415 11.7226C6.96121 11.7144 7.03879 11.7144 7.11585 11.7226C7.32363 11.7448 7.51923 11.8467 7.91041 12.0505C9.086 12.663 9.67383 12.9693 10.0545 12.7755C10.1879 12.7076 10.3029 12.6046 10.3886 12.4764C10.6332 12.1104 10.4499 11.442 10.0834 10.1051L9.86242 9.29913C9.0538 9.87179 8.06622 10.2083 7 10.2083C5.93378 10.2083 4.94617 9.87179 4.13759 9.29913Z" fill="#0CBD8B"/>
</svg>
