<svg width="18" height="18" viewBox="0 0 18 18" fill="none" xmlns="http://www.w3.org/2000/svg">
<path d="M12.5562 10.9409L12.1007 11.3937C12.1007 11.3937 11.0181 12.4702 8.0631 9.53186C5.10812 6.59367 6.1907 5.51723 6.1907 5.51723L6.4775 5.23204C7.1841 4.5295 7.2507 3.40157 6.6342 2.57814L5.37326 0.893745C4.61028 -0.125415 3.13596 -0.260045 2.26145 0.609495L0.691848 2.17018C0.258228 2.60134 -0.0323518 3.16025 0.0028882 3.78027C0.0930382 5.36648 0.810708 8.77936 4.81536 12.7613C9.0621 16.9839 13.0468 17.1517 14.6763 16.9998C15.1917 16.9518 15.6399 16.6893 16.0011 16.3301L17.4217 14.9177C18.3806 13.9642 18.1102 12.3296 16.8833 11.6627L14.9728 10.6241C14.1672 10.1862 13.1858 10.3148 12.5562 10.9409Z" fill="#212121"/>
</svg>
