<svg width="16" height="16" viewBox="0 0 16 16" fill="none" xmlns="http://www.w3.org/2000/svg">
<path fill-rule="evenodd" clip-rule="evenodd" d="M8 15.5C12.1421 15.5 15.5 12.1421 15.5 8C15.5 3.85786 12.1421 0.5 8 0.5C3.85786 0.5 0.5 3.85786 0.5 8C0.5 12.1421 3.85786 15.5 8 15.5ZM8.5625 5.75C8.5625 5.43934 8.31065 5.1875 8 5.1875C7.68935 5.1875 7.4375 5.43934 7.4375 5.75V7.4375H5.75C5.43934 7.4375 5.1875 7.68935 5.1875 8C5.1875 8.31065 5.43934 8.5625 5.75 8.5625H7.4375V10.25C7.4375 10.5606 7.68935 10.8125 8 10.8125C8.31065 10.8125 8.5625 10.5606 8.5625 10.25V8.5625H10.25C10.5606 8.5625 10.8125 8.31065 10.8125 8C10.8125 7.68935 10.5606 7.4375 10.25 7.4375H8.5625V5.75Z" fill="#212121"/>
</svg>
