<svg width="18" height="18" viewBox="0 0 18 18" fill="none" xmlns="http://www.w3.org/2000/svg">
<path fill-rule="evenodd" clip-rule="evenodd" d="M9 16.5C13.1421 16.5 16.5 13.1421 16.5 9C16.5 4.85786 13.1421 1.5 9 1.5C4.85786 1.5 1.5 4.85786 1.5 9C1.5 13.1421 4.85786 16.5 9 16.5ZM9.5625 6.75C9.5625 6.43934 9.31065 6.1875 9 6.1875C8.68935 6.1875 8.4375 6.43934 8.4375 6.75V8.4375H6.75C6.43934 8.4375 6.1875 8.68935 6.1875 9C6.1875 9.31065 6.43934 9.5625 6.75 9.5625H8.4375V11.25C8.4375 11.5606 8.68935 11.8125 9 11.8125C9.31065 11.8125 9.5625 11.5606 9.5625 11.25V9.5625H11.25C11.5606 9.5625 11.8125 9.31065 11.8125 9C11.8125 8.68935 11.5606 8.4375 11.25 8.4375H9.5625V6.75Z" fill="white"/>
</svg>
