<svg width="20" height="20" viewBox="0 0 20 20" fill="none" xmlns="http://www.w3.org/2000/svg">
<path d="M3.33331 11.6667H18.3333" stroke="#2DA0ED" stroke-width="1.5" stroke-linecap="round" stroke-linejoin="round"/>
<path d="M4.16669 18.3334L4.94215 17.5579C5.3828 17.1173 5.60311 16.8969 5.88072 16.7717C6.15833 16.6464 6.4693 16.6269 7.09125 16.5881L9.8016 16.4187C11.1337 16.3354 11.7998 16.2938 12.3859 16.0124C12.972 15.7309 13.4209 15.237 14.3187 14.2494L16.6667 11.6667H13.75L12.2559 13.1608C12.1566 13.2601 12.1069 13.3099 12.0552 13.3537C11.7894 13.5795 11.4594 13.7162 11.1118 13.7445C11.0441 13.75 10.9739 13.75 10.8334 13.75M10.8334 13.75C10.8334 13.3628 10.8334 13.1692 10.8014 13.0082C10.6699 12.347 10.153 11.8302 9.49185 11.6987C9.33085 11.6667 9.13727 11.6667 8.75002 11.6667H8.09876C7.22789 11.6667 6.79246 11.6667 6.38415 11.7717C6.08001 11.8499 5.78845 11.9706 5.51811 12.1304C5.15516 12.3449 4.84726 12.6528 4.23147 13.2686L1.66669 15.8334M10.8334 13.75H7.91669" stroke="#2DA0ED" stroke-width="1.5" stroke-linecap="round" stroke-linejoin="round"/>
<path d="M4.16669 9.58335C4.16669 5.90145 7.15145 2.91669 10.8334 2.91669M10.8334 2.91669C14.5153 2.91669 17.5 5.90145 17.5 9.58335M10.8334 2.91669V1.66669" stroke="#2DA0ED" stroke-width="1.5" stroke-linecap="round" stroke-linejoin="round"/>
</svg>
