<svg width="18" height="20" viewBox="0 0 18 20" fill="none" xmlns="http://www.w3.org/2000/svg">
<path d="M5 7V9H2V18H16V9H13V7H16C16.5304 7 17.0391 7.21071 17.4142 7.58579C17.7893 7.96086 18 8.46957 18 9V18C18 18.5304 17.7893 19.0391 17.4142 19.4142C17.0391 19.7893 16.5304 20 16 20H2C1.46957 20 0.960859 19.7893 0.585786 19.4142C0.210714 19.0391 0 18.5304 0 18V9C0 8.46957 0.210714 7.96086 0.585786 7.58579C0.960859 7.21071 1.46957 7 2 7H5ZM9.884 0.469001L13.243 3.827C13.4306 4.01464 13.5361 4.26914 13.5361 4.5345C13.5361 4.79987 13.4306 5.05436 13.243 5.242C13.0554 5.42964 12.8009 5.53506 12.5355 5.53506C12.2701 5.53506 12.0156 5.42964 11.828 5.242L10 3.413V13C10 13.2652 9.89464 13.5196 9.70711 13.7071C9.51957 13.8946 9.26522 14 9 14C8.73478 14 8.48043 13.8946 8.29289 13.7071C8.10536 13.5196 8 13.2652 8 13V3.413L6.172 5.242C6.07909 5.33491 5.96879 5.40861 5.8474 5.45889C5.726 5.50918 5.5959 5.53506 5.4645 5.53506C5.33311 5.53506 5.203 5.50918 5.0816 5.45889C4.96021 5.40861 4.84991 5.33491 4.757 5.242C4.66409 5.14909 4.59039 5.03879 4.54011 4.9174C4.48982 4.796 4.46394 4.6659 4.46394 4.5345C4.46394 4.40311 4.48982 4.273 4.54011 4.1516C4.59039 4.03021 4.66409 3.91991 4.757 3.827L8.117 0.469001C8.35139 0.234815 8.66917 0.103268 9.0005 0.103268C9.33183 0.103268 9.64961 0.234815 9.884 0.469001Z" fill="#212121"/>
</svg>
