<svg width="35" height="36" viewBox="0 0 35 36" fill="none" xmlns="http://www.w3.org/2000/svg">
<mask id="mask0_3034_375" style="mask-type:luminance" maskUnits="userSpaceOnUse" x="1" y="2" width="33" height="32">
<rect width="32" height="32" rx="16" transform="matrix(-1 0 0 1 33.5 2)" fill="white"/>
</mask>
<g mask="url(#mask0_3034_375)">
<rect width="16" height="26.6667" rx="2" transform="matrix(-1 0 0 1 16.7383 12.6666)" fill="#007AFF" fill-opacity="0.2"/>
<path d="M14.833 11.5238C16.5162 11.5238 17.8809 12.8885 17.8809 14.5717V14.9525H18.1426C18.4187 14.9525 18.6426 15.1764 18.6426 15.4525V21.3099C18.6424 21.5859 18.4186 21.8099 18.1426 21.8099H17.8809V38.9525C17.8808 40.6356 16.5161 42.0004 14.833 42.0004H1.11914C-0.563967 42.0004 -1.92864 40.6356 -1.92871 38.9525V14.5717C-1.92871 12.8885 -0.564013 11.5238 1.11914 11.5238H14.833ZM1.4043 12.6664C0.194764 12.6666 -0.785996 13.6631 -0.786133 14.892V38.6312C-0.786133 39.8603 0.19468 40.8566 1.4043 40.8568H14.5479C15.7574 40.8566 16.7383 39.8602 16.7383 38.6312V14.892C16.7381 13.6631 15.7574 12.6666 14.5479 12.6664H1.4043Z" fill="#007AFF"/>
</g>
<rect x="0.75" y="-0.75" width="33.5" height="33.5" rx="16.75" transform="matrix(-1 0 0 1 35 2)" stroke="#007AFF" stroke-width="1.5"/>
<path d="M20.1665 17.6217C20.1665 17.4089 20.2576 17.1857 20.3992 17.0456L23.6822 13.6777C23.8441 13.5116 24.0313 13.4286 24.2185 13.4286C24.6636 13.4286 24.9671 13.7451 24.9671 14.1655C24.9671 14.4042 24.866 14.5858 24.7243 14.7259L23.576 15.9091L22.5289 16.9003L23.6215 16.8381H28.5152C28.9907 16.8381 29.3094 17.1546 29.3094 17.6217C29.3094 18.0887 28.9907 18.4001 28.5152 18.4001H23.6215L22.5289 18.343L23.576 19.329L24.7243 20.507C24.866 20.6523 24.9671 20.8339 24.9671 21.0675C24.9671 21.4878 24.6636 21.8095 24.2185 21.8095C24.0313 21.8095 23.8441 21.7265 23.6873 21.5656L20.3992 18.1925C20.2576 18.0524 20.1665 17.8292 20.1665 17.6217Z" fill="#007AFF"/>
</svg>
