<svg width="25" height="24" viewBox="0 0 25 24" fill="none" xmlns="http://www.w3.org/2000/svg">
<path fill-rule="evenodd" clip-rule="evenodd" d="M2 11.5667C2 5.83838 6.84523 1.25 12.75 1.25C18.6548 1.25 23.5 5.83838 23.5 11.5667C23.5 17.295 18.6548 21.8834 12.75 21.8834C12.0541 21.8843 11.3603 21.8199 10.677 21.6916C10.4398 21.647 10.2891 21.6189 10.177 21.6036C10.0933 21.5907 10.0093 21.6219 9.97775 21.6391C9.86322 21.6935 9.71068 21.7744 9.47714 21.8986C8.04542 22.66 6.37504 22.93 4.76396 22.6303C4.50381 22.5819 4.2884 22.4 4.19713 22.1517C4.10586 21.9033 4.15224 21.6252 4.31917 21.4199C4.78697 20.8445 5.10863 20.1513 5.25088 19.4052C5.28937 19.2 5.20227 18.9213 4.93451 18.6494C3.11972 16.8065 2 14.3144 2 11.5667Z" fill="#2DA0ED"/>
<path d="M8.082 14.06C7.866 14.06 7.659 14.034 7.461 13.982C7.263 13.928 7.082 13.849 6.918 13.745C6.756 13.639 6.622 13.508 6.516 13.352C6.41 13.194 6.345 13.01 6.321 12.8H7.077C7.109 12.946 7.172 13.069 7.266 13.169C7.362 13.269 7.483 13.345 7.629 13.397C7.775 13.449 7.938 13.475 8.118 13.475C8.278 13.475 8.427 13.451 8.565 13.403C8.703 13.355 8.815 13.284 8.901 13.19C8.987 13.094 9.03 12.976 9.03 12.836C9.03 12.678 8.974 12.555 8.862 12.467C8.752 12.377 8.594 12.306 8.388 12.254L7.539 12.053C7.319 12.003 7.127 11.93 6.963 11.834C6.801 11.738 6.675 11.612 6.585 11.456C6.495 11.298 6.45 11.105 6.45 10.877C6.45 10.617 6.521 10.392 6.663 10.202C6.807 10.012 7.002 9.866 7.248 9.764C7.494 9.66 7.771 9.608 8.079 9.608C8.431 9.608 8.728 9.667 8.97 9.785C9.212 9.901 9.396 10.057 9.522 10.253C9.648 10.449 9.712 10.664 9.714 10.898H8.976C8.96 10.724 8.909 10.587 8.823 10.487C8.737 10.385 8.628 10.311 8.496 10.265C8.364 10.219 8.218 10.196 8.058 10.196C7.774 10.196 7.563 10.257 7.425 10.379C7.287 10.501 7.218 10.644 7.218 10.808C7.218 10.962 7.269 11.084 7.371 11.174C7.473 11.264 7.629 11.334 7.839 11.384L8.646 11.573C8.916 11.629 9.133 11.715 9.297 11.831C9.461 11.947 9.58 12.085 9.654 12.245C9.73 12.403 9.768 12.578 9.768 12.77C9.768 13.022 9.696 13.245 9.552 13.439C9.41 13.633 9.213 13.785 8.961 13.895C8.709 14.005 8.416 14.06 8.082 14.06ZM10.8031 14V9.662H11.8471L12.9841 12.977L14.1331 9.662H15.1711V14H14.4301V10.598L13.2871 14H12.6781L11.5441 10.619V14H10.8031ZM17.98 14.06C17.764 14.06 17.557 14.034 17.359 13.982C17.161 13.928 16.98 13.849 16.816 13.745C16.654 13.639 16.52 13.508 16.414 13.352C16.308 13.194 16.243 13.01 16.219 12.8H16.975C17.007 12.946 17.07 13.069 17.164 13.169C17.26 13.269 17.381 13.345 17.527 13.397C17.673 13.449 17.836 13.475 18.016 13.475C18.176 13.475 18.325 13.451 18.463 13.403C18.601 13.355 18.713 13.284 18.799 13.19C18.885 13.094 18.928 12.976 18.928 12.836C18.928 12.678 18.872 12.555 18.76 12.467C18.65 12.377 18.492 12.306 18.286 12.254L17.437 12.053C17.217 12.003 17.025 11.93 16.861 11.834C16.699 11.738 16.573 11.612 16.483 11.456C16.393 11.298 16.348 11.105 16.348 10.877C16.348 10.617 16.419 10.392 16.561 10.202C16.705 10.012 16.9 9.866 17.146 9.764C17.392 9.66 17.669 9.608 17.977 9.608C18.329 9.608 18.626 9.667 18.868 9.785C19.11 9.901 19.294 10.057 19.42 10.253C19.546 10.449 19.61 10.664 19.612 10.898H18.874C18.858 10.724 18.807 10.587 18.721 10.487C18.635 10.385 18.526 10.311 18.394 10.265C18.262 10.219 18.116 10.196 17.956 10.196C17.672 10.196 17.461 10.257 17.323 10.379C17.185 10.501 17.116 10.644 17.116 10.808C17.116 10.962 17.167 11.084 17.269 11.174C17.371 11.264 17.527 11.334 17.737 11.384L18.544 11.573C18.814 11.629 19.031 11.715 19.195 11.831C19.359 11.947 19.478 12.085 19.552 12.245C19.628 12.403 19.666 12.578 19.666 12.77C19.666 13.022 19.594 13.245 19.45 13.439C19.308 13.633 19.111 13.785 18.859 13.895C18.607 14.005 18.314 14.06 17.98 14.06Z" fill="white"/>
</svg>
