<svg width="14" height="14" viewBox="0 0 14 14" fill="none" xmlns="http://www.w3.org/2000/svg">
<path d="M5.33933 3.15489C6.07821 1.82941 6.44763 1.16667 6.99999 1.16667C7.55235 1.16667 7.92177 1.82941 8.66062 3.15489L8.85178 3.49781C9.06178 3.87446 9.16672 4.0628 9.33047 4.18706C9.49415 4.31132 9.69797 4.35745 10.1057 4.4497L10.4769 4.53369C11.9117 4.85833 12.6292 5.02065 12.7998 5.56951C12.9705 6.11836 12.4815 6.69031 11.5033 7.83411L11.2502 8.13004C10.9723 8.45507 10.8332 8.61759 10.7707 8.81866C10.7082 9.01974 10.7292 9.23656 10.7712 9.67027L10.8095 10.0651C10.9574 11.5912 11.0313 12.3542 10.5845 12.6935C10.1376 13.0327 9.46592 12.7234 8.1225 12.1049L7.77495 11.9448C7.39322 11.769 7.20235 11.6811 6.99999 11.6811C6.79763 11.6811 6.60677 11.769 6.22503 11.9448L5.87748 12.1049C4.53405 12.7234 3.86235 13.0327 3.4155 12.6935C2.96864 12.3542 3.04259 11.5912 3.19047 10.0651L3.22873 9.67027C3.27076 9.23656 3.29177 9.01974 3.22924 8.81866C3.16672 8.61759 3.02774 8.45507 2.74978 8.13004L2.49672 7.83411C1.51855 6.69031 1.02947 6.11836 1.20015 5.56951C1.37084 5.02065 2.08824 4.85833 3.52306 4.53369L3.89426 4.4497C4.30199 4.35745 4.50585 4.31132 4.66954 4.18706C4.83323 4.0628 4.93822 3.87447 5.14818 3.49781L5.33933 3.15489Z" fill="#F9B04A"/>
</svg>
