<svg width="20" height="20" viewBox="0 0 20 20" fill="none" xmlns="http://www.w3.org/2000/svg">
<path d="M9.99998 18.3334C12.3011 18.3334 14.1666 16.4679 14.1666 14.1667C14.1666 12.8037 13.5122 11.5935 12.5004 10.8334V4.1671C12.5004 3.39015 12.5004 3.00167 12.3734 2.69525C12.2042 2.28711 11.88 1.96283 11.4718 1.79368C11.1654 1.66669 10.7769 1.66669 9.99998 1.66669C9.22306 1.66669 8.83456 1.66669 8.52815 1.79368C8.12 1.96283 7.79571 2.28711 7.62656 2.69525C7.49957 3.00167 7.49957 3.39015 7.49957 4.1671V10.8334C6.48776 11.5935 5.83331 12.8037 5.83331 14.1667C5.83331 16.4679 7.6988 18.3334 9.99998 18.3334Z" stroke="#2DA0ED" stroke-width="1.5" stroke-linejoin="round"/>
<path d="M9.99998 12.5C9.07948 12.5 8.33331 13.2462 8.33331 14.1667C8.33331 15.0872 9.07948 15.8334 9.99998 15.8334C10.9205 15.8334 11.6666 15.0872 11.6666 14.1667C11.6666 13.2462 10.9205 12.5 9.99998 12.5ZM9.99998 12.5V6.66669" stroke="#2DA0ED" stroke-width="1.5" stroke-linecap="round" stroke-linejoin="round"/>
</svg>
