<svg width="40" height="40" viewBox="0 0 40 40" fill="none" xmlns="http://www.w3.org/2000/svg">
<rect width="40" height="40" rx="10" fill="#3E9B04"/>
<path d="M20.25 16C20.25 13.6528 22.1528 11.75 24.5 11.75C26.8472 11.75 28.75 13.6528 28.75 16C28.75 18.3471 26.8472 20.25 24.5 20.25C22.1528 20.25 20.25 18.3471 20.25 16Z" fill="white"/>
<path d="M21.8268 23.6907L26.3982 22.115C27.1983 21.8353 28.0673 22.1648 28.5742 22.9523C28.8954 23.4514 28.7598 24.1621 28.3022 24.4583L19.8169 29.9511C19.3438 30.2573 18.7871 30.3315 18.2683 30.1587L11.9341 28.05C11.5256 27.914 11.25 27.5318 11.25 27.1012V21.75C11.25 21.1977 11.6977 20.75 12.25 20.75H13.6716C13.9613 20.75 14.2468 20.8233 14.5053 20.9636L16.8107 22.215C17.1464 22.3972 17.516 22.4918 17.8904 22.4918H19.0675C20.0098 22.4918 20.7681 23.2778 20.8409 24.2584V24.3919L18.1116 25.2386C17.6666 25.3766 17.1902 25.3317 16.77 25.1083L14.44 23.6286C14.2069 23.4805 13.8979 23.5495 13.7499 23.7826C13.6018 24.0157 13.6708 24.3247 13.9039 24.4727L16.2492 25.9622C16.2588 25.9683 16.2687 25.9741 16.2787 25.9796C16.9364 26.3366 17.6972 26.4141 18.4078 26.1937L21.2766 25.3038C21.6675 25.1826 21.9103 24.8089 21.9103 24.4134C21.9103 24.1872 21.8874 23.9663 21.8439 23.7534C21.8395 23.7319 21.8337 23.711 21.8268 23.6907Z" fill="white"/>
<path d="M22.4157 10.9085C20.4114 11.7296 18.9995 13.6999 18.9995 16C18.9995 16.8016 19.171 17.5631 19.4793 18.25C17.1414 18.2391 15.2495 16.3404 15.2495 14C15.2495 11.6528 17.1523 9.75 19.4995 9.75C20.629 9.75 21.6549 10.1904 22.4157 10.9085Z" fill="white"/>
</svg>
