<svg width="29" height="28" viewBox="0 0 29 28" fill="none" xmlns="http://www.w3.org/2000/svg">
<path fill-rule="evenodd" clip-rule="evenodd" d="M21.5828 0.5741C19.7916 0.333287 17.4973 0.3333 14.5764 0.333313H14.4239C11.503 0.3333 9.20875 0.333287 7.41754 0.5741C5.58199 0.820887 4.12564 1.33694 2.98139 2.48119C1.83712 3.62546 1.32107 5.08181 1.0743 6.91734C0.83347 8.70857 0.833483 11.0028 0.833496 13.9237V14.0762C0.833483 16.9972 0.83347 19.2914 1.0743 21.0826C1.32107 22.9181 1.83712 24.3745 2.98139 25.5188C4.12564 26.663 5.58199 27.179 7.41754 27.4258C9.20875 27.6666 11.503 27.6666 14.4239 27.6666H14.5764C17.4973 27.6666 19.7916 27.6666 21.5828 27.4258C23.4184 27.179 24.8747 26.663 26.0189 25.5188C27.1632 24.3745 27.6792 22.9181 27.926 21.0826C28.1668 19.2914 28.1668 16.9972 28.1668 14.0762V13.9237C28.1668 11.0028 28.1668 8.70857 27.926 6.91734C27.6792 5.08181 27.1632 3.62546 26.0189 2.48119C24.8747 1.33694 23.4184 0.820887 21.5828 0.5741ZM7.8335 6.33331C7.45798 6.33331 7.1141 6.5437 6.94314 6.87806C6.77218 7.21242 6.80295 7.61437 7.02283 7.91881L12.1156 14.9704L7.1264 19.9596C6.73587 20.3501 6.73587 20.9832 7.1264 21.3737C7.51692 21.7642 8.15008 21.7642 8.54062 21.3737L13.3017 16.6126L16.6524 21.2521C16.8404 21.5125 17.142 21.6666 17.4631 21.6666H21.1668C21.5424 21.6666 21.8863 21.4562 22.0572 21.1218C22.2281 20.7876 22.1973 20.3856 21.9775 20.0812L16.8848 13.0296L21.874 8.04042C22.2644 7.6499 22.2644 7.01673 21.874 6.62621C21.4835 6.23569 20.8503 6.23569 20.4597 6.62621L15.6987 11.3873L12.3479 6.74782C12.1599 6.48751 11.8583 6.33331 11.5372 6.33331H7.8335Z" fill="#414141"/>
</svg>
